<svg id="Cups" xmlns="http://www.w3.org/2000/svg" viewBox="0 0 352 375"><defs><style>.cls-1{fill:#ff4c54;}.cls-2{fill:#ff3147;}.cls-3{fill:#f44650;}.cls-4{fill:#f4f4f4;}.cls-5{fill:#e4e4e4;}</style></defs><path class="cls-1" d="M305.14,10.51A11.67,11.67,0,0,0,293.53,0h-235A11.67,11.67,0,0,0,46.88,10.51L12.93,351.16H339.09Z"/><path class="cls-2" d="M58.51,0A11.65,11.65,0,0,0,46.9,10.52L13,351.18H71.69l34-340.66A11.65,11.65,0,0,1,117.25,0Z"/><path class="cls-3" d="M251.5,14.61h-151a7.94,7.94,0,1,0,0,15.88h151a7.94,7.94,0,0,0,0-15.88Z"/><path class="cls-3" d="M307.67,322.26H44.35a7.94,7.94,0,0,0,0,15.88H307.67a7.94,7.94,0,0,0,0-15.88Z"/><path class="cls-3" d="M274.83,297.2H77.19a7.94,7.94,0,0,0,0,15.88H274.83a7.94,7.94,0,0,0,0-15.88Z"/><path class="cls-4" d="M339.09,351.16H12.93a11.92,11.92,0,1,0,0,23.84H339.09a11.92,11.92,0,1,0,0-23.84Z"/><path class="cls-5" d="M36,363.08a11.77,11.77,0,0,1,3.5-8.4,12,12,0,0,1,8.46-3.5H13a12,12,0,0,0-8.46,3.5,11.77,11.77,0,0,0-3.5,8.4A11.92,11.92,0,0,0,13,375H48A11.92,11.92,0,0,1,36,363.08Z"/></svg>