<svg xmlns:xlink="http://www.w3.org/1999/xlink" data-v-42be5421="" viewBox="0 0 30 24" height="24" width="30" xmlns="http://www.w3.org/2000/svg"><path xmlns="http://www.w3.org/2000/svg" d="M21 4.23529H24V24H6V4.23529H9V2.82353C9 2.07468 9.31607 1.35651 9.87868 0.826993C10.4413 0.297478 11.2044 0 12 0H18C18.7957 0 19.5587 0.297478 20.1213 0.826993C20.6839 1.35651 21 2.07468 21 2.82353V4.23529ZM25.5 4.23529H27C27.7957 4.23529 28.5587 4.53277 29.1213 5.06229C29.6839 5.5918 30 6.30998 30 7.05882V21.1765C30 21.9253 29.6839 22.6435 29.1213 23.173C28.5587 23.7025 27.7957 24 27 24H25.5V4.23529ZM4.5 4.23529V24H3C2.20435 24 1.44129 23.7025 0.87868 23.173C0.316071 22.6435 0 21.9253 0 21.1765V7.05882C0 5.50588 1.35 4.23529 3 4.23529H4.5ZM12 2.82353V4.23529H18V2.82353H12Z"></path></svg>