<svg viewBox="0 0 17 19" xmlns="http://www.w3.org/2000/svg" width="40" height="45" fill="#fff"><path fill-rule="evenodd" clip-rule="evenodd" d="M14.975 5.35 8.836 1.788a.67.67 0 0 0-.672 0L2.025 5.351a.677.677 0 0 0-.336.585v7.128c0 .241.128.465.336.585l6.139 3.564a.67.67 0 0 0 .672 0l6.139-3.564a.677.677 0 0 0 .336-.585V5.936a.677.677 0 0 0-.336-.585ZM9.509.616a2.009 2.009 0 0 0-2.018 0L1.353 4.18a2.032 2.032 0 0 0-1.01 1.757v7.128c0 .725.385 1.395 1.01 1.757l6.138 3.564a2.009 2.009 0 0 0 2.018 0l6.139-3.564a2.031 2.031 0 0 0 1.009-1.757V5.936c0-.725-.385-1.395-1.01-1.757L9.51.615Z"></path><path fill-rule="evenodd" clip-rule="evenodd" d="M4 12.44h1.585V9.945c.199-.052.89-.047.89.387v2.106h1.564V9.883c-.045-.18-.293-.538-.916-.522.305-.033.916-.256.916-.891v-.968c-.022-.38-.357-1.143-1.512-1.143H4v6.08Zm1.558-5.074V8.82h.618c.153-.026.459-.21.459-.736 0-.527-.306-.697-.459-.717h-.618Z"></path><path d="M11.303 8.902c-.55-.246-1.071-.477-1.07-.74.002-.182.282-.367.748-.367h.012c.618.004 1.215.499 1.33.621l.115.122 1.062-.972-.114-.106c-.18-.167-.806-.708-1.62-.947l.009-1.004-1.485-.01-.008.98c-.928.228-1.547.89-1.554 1.681-.008 1.041 1.09 1.532 1.973 1.926.55.245 1.068.476 1.066.74 0 .091-.065.18-.181.252-.144.088-.35.136-.579.133-.702-.004-1.312-.632-1.318-.639l-.114-.123-1.075.971.118.11c.18.168.812.716 1.616.953l-.008 1.005 1.484.01.008-.982c.935-.237 1.558-.904 1.564-1.69.009-1.04-1.093-1.53-1.979-1.924Z"></path></svg>