<?xml version="1.0" encoding="UTF-8"?><svg id="Layer_2" xmlns="http://www.w3.org/2000/svg" xmlns:xlink="http://www.w3.org/1999/xlink" viewBox="0 0 593.56 356"><defs><style>.cls-1{fill:#fff;}.cls-2{fill:#287eb7;}.cls-3{fill:#e74b3c;}.cls-4{fill:#22a055;}.cls-5{fill:url(#linear-gradient);}.cls-6{fill:#2bbc66;}</style><linearGradient id="linear-gradient" x1="301.88" y1="173.49" x2="432.97" y2="63.5" gradientTransform="matrix(1, 0, 0, 1, 0, 0)" gradientUnits="userSpaceOnUse"><stop offset="0" stop-color="#3196da"/><stop offset="1" stop-color="#53bdf9"/></linearGradient></defs><g id="Logo"><g><path class="cls-2" d="M593.56,232.51c-22.53-1.82-52.95-1.32-86.89,8.27-11.6,3.28-22.09,7.19-31.41,11.29,4.25-10.2,7.64-20.77,10.07-31.6l.42-1.87c36.03,3.61,71.98,8.24,107.82,13.91Z"/><path class="cls-2" d="M0,232.51c22.53-1.82,52.95-1.32,86.89,8.27,11.6,3.28,22.09,7.19,31.41,11.29-4.25-10.2-7.64-20.77-10.07-31.6l-.42-1.87c-36.03,3.61-71.98,8.24-107.82,13.91Z"/><path class="cls-3" d="M221.29,280.25l-32.6,39.09c29.98,22.99,67.47,36.66,108.09,36.66,40.74,0,78.33-13.76,108.36-36.87l-32.67-39.03c-21.16,15.73-47.35,25.04-75.69,25.04-28.24,0-54.37-9.26-75.49-24.89Z"/><g><path class="cls-1" d="M17.55,214.9c-4.53,.68-8.3-.26-11.31-2.83-3.01-2.57-4.35-6-4.04-10.31,.16-2.27,.32-4.53,.49-6.8,5.72-.91,11.44-1.78,17.16-2.64-.03,.51-.07,1.01-.1,1.52-.1,1.48-.2,2.95-.3,4.43,1.22-.18,2.44-.36,3.66-.54,11.4-1.68,22.82-3.25,34.25-4.71,2.14-.27,3.97-2.14,4.09-4.18,.11-1.98,.23-3.96,.34-5.94,.12-2.04-1.52-3.47-3.65-3.19-12.87,1.65-25.72,3.43-38.56,5.35-4.5,.67-8.24-.27-11.23-2.84-2.98-2.57-4.32-6.01-4.01-10.31,.36-5.01,.72-10.02,1.08-15.04,.31-4.3,2.16-8.25,5.55-11.81,3.39-3.56,7.3-5.69,11.74-6.35,14.29-2.13,28.6-4.1,42.93-5.9,4.38-.55,8.09,.52,11.15,3.2,3.05,2.68,4.47,6.17,4.24,10.47-.12,2.26-.24,4.52-.36,6.79-5.77,.67-11.54,1.37-17.31,2.1,.05-.82,.09-1.64,.14-2.46,.07-1.16,.13-2.32,.2-3.49-1.21,.15-2.42,.31-3.63,.46-11.31,1.45-22.6,3-33.89,4.66-2.12,.31-3.94,2.22-4.08,4.26-.13,1.98-.27,3.97-.4,5.95-.14,2.04,1.47,3.44,3.59,3.12,12.86-1.89,25.74-3.64,38.63-5.26,4.41-.56,8.16,.51,11.23,3.19,3.08,2.68,4.51,6.17,4.28,10.46-.27,5-.53,10-.8,15-.23,4.29-2.06,8.16-5.5,11.62-3.44,3.45-7.4,5.46-11.86,6.02-14.6,1.83-29.18,3.84-43.74,6.01Z"/><path class="cls-1" d="M88.21,205.7c1.28-25.34,2.57-50.69,3.85-76.03,5.67-.63,11.34-1.23,17.01-1.81-.46,9.92-.92,19.84-1.38,29.76,13.95-1.42,27.9-2.68,41.87-3.78,.36-9.91,.72-19.82,1.08-29.74,5.68-.45,11.36-.87,17.05-1.27-.81,25.3-1.62,50.6-2.43,75.9-5.79,.4-11.58,.83-17.37,1.29,.36-9.91,.72-19.82,1.08-29.74-14.02,1.11-28.04,2.37-42.04,3.8-.46,9.92-.92,19.84-1.38,29.76-5.78,.59-11.56,1.2-17.33,1.84Z"/><path class="cls-1" d="M192.28,197.05c-4.56,.25-8.43-1.04-11.59-3.9-3.16-2.86-4.67-6.42-4.55-10.71,.59-20.1,1.18-40.19,1.78-60.29,5.69-.36,11.37-.7,17.06-1.02-.47,18.58-.94,37.17-1.41,55.75-.05,2.03,1.65,3.58,3.8,3.47,11.41-.6,22.83-1.1,34.25-1.5,2.15-.08,3.92-1.78,3.95-3.81,.28-18.58,.56-37.15,.83-55.73,5.77-.19,11.53-.35,17.3-.48-.21,20.08-.43,40.16-.64,60.24-.05,4.28-1.73,7.99-5.05,11.13-3.33,3.14-7.24,4.78-11.73,4.92-14.68,.47-29.35,1.11-44.01,1.92Z"/><path class="cls-1" d="M263.36,194.46c.21-25.27,.41-50.55,.62-75.82,24.43-.43,48.87-.38,73.29,.15,.06,5.48,.11,10.95,.16,16.43-18.74-.41-37.48-.53-56.22-.38-.02,4.42-.03,8.85-.05,13.27,11.92-.1,23.83-.09,35.75,.04,.03,5.48,.05,10.95,.08,16.43-11.96-.13-23.93-.14-35.89-.04-.04,9.9-.08,19.8-.11,29.69-5.88,.05-11.75,.13-17.63,.23Z"/><path class="cls-1" d="M348.47,194.87c-.32-25.28-.64-50.55-.95-75.83,24.43,.67,48.84,1.82,73.23,3.45,.17,5.48,.34,10.96,.5,16.44-18.71-1.25-37.43-2.22-56.16-2.91,.07,4.42,.15,8.85,.22,13.27,11.91,.44,23.82,.99,35.72,1.65,.14,5.48,.28,10.96,.42,16.44-11.95-.67-23.9-1.22-35.86-1.66,.17,9.9,.33,19.8,.5,29.7-5.87-.22-11.75-.4-17.62-.56Z"/><path class="cls-1" d="M433.51,199.11c-.84-25.34-1.68-50.68-2.53-76.01,5.68,.41,11.37,.85,17.05,1.31,.74,19.86,1.49,39.72,2.23,59.59,18.97,1.55,37.91,3.39,56.84,5.52,.28,5.49,.56,10.98,.84,16.47-24.77-2.79-49.59-5.08-74.43-6.88Z"/><path class="cls-1" d="M518.33,207.19c-1.36-25.35-2.73-50.7-4.09-76.06,24.31,2.87,48.57,6.22,72.77,10.05,.39,5.51,.79,11.01,1.18,16.52-18.57-2.94-37.17-5.6-55.79-7.97,.26,4.44,.51,8.88,.77,13.32,11.84,1.51,23.68,3.13,35.5,4.87,.37,5.5,.73,11,1.1,16.51-11.87-1.75-23.75-3.38-35.64-4.89,.26,4.44,.51,8.88,.77,13.32,18.82,2.4,37.62,5.09,56.38,8.06,.39,5.51,.79,11.01,1.18,16.52-24.66-3.91-49.38-7.32-74.14-10.24Z"/></g><path class="cls-6" d="M131.97,110.73c19.93-1.79,39.87-3.25,59.83-4.38,5.25-7.67,11.32-14.73,18.08-21.06l-32.56-39.14c-19.57,17.74-35.19,39.76-45.35,64.58Z"/><path class="cls-6" d="M182.63,233.94c-3.28-6.64-5.99-13.62-8.07-20.85-17.16,1.11-34.32,2.45-51.45,4.03,1.59,7.06,3.6,13.96,6,20.68,9.23,25.83,24.28,48.92,43.56,67.67l33.93-37.93c-9.7-9.78-17.84-21.11-23.97-33.6Z"/><path class="cls-5" d="M296.78,0c-.99,0-1.99,.01-2.98,.03-.5,0-1,.01-1.51,.03-.57,.01-1.14,.03-1.71,.05-.42,.01-.84,.03-1.25,.04-.98,.04-1.96,.09-2.94,.15-.89,.05-1.79,.11-2.68,.18l-.42,.03c-.49,.03-.97,.07-1.46,.12-.63,.04-1.26,.1-1.88,.17-.3,.02-.6,.05-.9,.08-.74,.07-1.48,.15-2.22,.24-1.38,.15-2.76,.32-4.14,.5-1.09,.15-2.17,.31-3.25,.48-.99,.15-1.97,.31-2.94,.48-.25,.04-.5,.08-.74,.13-.99,.17-1.98,.35-2.97,.55-1.02,.19-2.05,.4-3.07,.62-.07,.02-.14,.03-.22,.05-1.09,.23-2.18,.47-3.26,.73-1.01,.23-2.01,.48-3.01,.73-.15,.04-.3,.07-.45,.12-1.01,.25-2.01,.52-3.01,.79-.07,.02-.13,.03-.19,.05-1.01,.28-2.01,.56-3.01,.86-1.06,.31-2.12,.63-3.17,.97-1.06,.33-2.11,.67-3.15,1.02-1.01,.34-2.02,.69-3.02,1.04-.03,.02-.07,.03-.11,.04-1.03,.37-2.06,.75-3.09,1.14-.95,.36-1.89,.72-2.83,1.1-.14,.05-.27,.1-.41,.16-.96,.39-1.92,.78-2.87,1.18-.88,.37-1.76,.75-2.63,1.13-.34,.15-.69,.31-1.04,.47-.78,.34-1.56,.7-2.33,1.06-.99,.46-1.98,.93-2.96,1.41-.97,.47-1.94,.96-2.91,1.45-10.03,5.12-19.51,11.17-28.34,18.05l32.87,38.86c6.38-4.79,13.23-9,20.46-12.54h0c.52-.27,1.05-.52,1.58-.76,.61-.3,1.22-.58,1.84-.86,.45-.21,.91-.41,1.37-.61,.51-.23,1.03-.45,1.54-.66,3.82-1.62,7.73-3.06,11.73-4.3,.48-.15,.96-.3,1.45-.44,.69-.21,1.39-.41,2.08-.6,.54-.15,1.08-.3,1.62-.44,.58-.16,1.16-.31,1.74-.45,.58-.15,1.16-.29,1.74-.42,1.17-.28,2.34-.53,3.52-.77,.59-.13,1.18-.24,1.77-.35,2.71-.52,5.46-.95,8.22-1.28,.48-.06,.96-.12,1.44-.17,.38-.05,.77-.09,1.15-.12,.46-.05,.93-.1,1.39-.14,.38-.03,.75-.07,1.13-.09,1.01-.09,2.02-.16,3.03-.21,.6-.04,1.2-.07,1.8-.1,.62-.03,1.25-.05,1.87-.07,1.24-.03,2.48-.05,3.73-.05s2.44,.02,3.66,.05h.1c.57,.02,1.15,.04,1.72,.07,.55,.02,1.1,.05,1.65,.08,.33,.02,.65,.03,.97,.06,.67,.04,1.34,.09,2.01,.14,.52,.04,1.05,.08,1.57,.13,1.53,.14,3.06,.31,4.57,.5,1.26,.16,2.51,.34,3.75,.54,1.3,.21,2.6,.43,3.89,.68,.65,.12,1.29,.25,1.93,.39,.64,.13,1.28,.27,1.92,.41,.62,.13,1.24,.28,1.85,.43,3.2,.76,6.35,1.65,9.45,2.66,.61,.19,1.22,.39,1.82,.6,.46,.15,.92,.31,1.38,.47,.37,.14,.75,.27,1.12,.41,3.88,1.41,7.66,3,11.35,4.77l27.41-16.71-3.08,31.95c.06,.05,.13,.1,.2,.16,.56,.44,1.11,.88,1.65,1.34,2.91,2.4,5.72,4.94,8.41,7.6,.33,.32,.66,.65,.99,.99,2.36,2.38,4.63,4.86,6.8,7.42,.35,.41,.7,.83,1.04,1.25,1.28,1.55,2.53,3.14,3.74,4.76,.27,.36,.54,.72,.8,1.08,.79,1.07,1.56,2.16,2.31,3.26,19.96,1.13,39.9,2.59,59.83,4.38C435,45.83,371.14,0,296.78,0Zm173.67,217.12c-1.59,7.06-3.6,13.96-6.01,20.68-9.27,25.95-24.41,49.12-43.81,67.92l-33.85-38c9.78-9.81,17.98-21.21,24.15-33.78h0c3.27-6.65,5.98-13.62,8.06-20.85,17.16,1.11,34.32,2.45,51.45,4.03Z"/><path class="cls-4" d="M182.63,233.94c-17.85,1.04-35.69,2.32-53.52,3.86-2.4-6.72-4.41-13.62-6-20.68,17.13-1.58,34.29-2.92,51.45-4.03,2.08,7.23,4.79,14.21,8.07,20.85Z"/><path class="cls-2" d="M470.45,217.12c-1.59,7.06-3.6,13.96-6.01,20.68-17.82-1.54-35.65-2.82-53.5-3.86,3.27-6.65,5.98-13.62,8.06-20.85,17.16,1.11,34.32,2.45,51.45,4.03Z"/><g><path class="cls-1" d="M269.57,249.46c-1.69,0-3.15-.6-4.35-1.81s-1.81-2.66-1.81-4.35v-17.67c0-1.69,.6-3.15,1.81-4.35s2.66-1.81,4.35-1.81h17.62c1.69,0,3.15,.6,4.38,1.81,1.22,1.21,1.83,2.66,1.83,4.35v2.83h-6.54v-2.5h-16.03c-.54,0-.97,.43-.97,.97v15.06c0,.54,.43,.97,.97,.97h15.06c.54,0,.97-.43,.97-.97v-3.53h-6.5v-6.5h13.04v11.33c0,1.69-.61,3.15-1.83,4.35-1.22,1.21-2.68,1.81-4.38,1.81h-17.62Z"/><path class="cls-1" d="M306.32,249.46c-1.69,0-3.15-.6-4.35-1.81s-1.81-2.66-1.81-4.35v-17.67c0-1.69,.6-3.15,1.81-4.35s2.66-1.81,4.35-1.81h17.62c1.69,0,3.15,.6,4.38,1.81,1.22,1.21,1.83,2.66,1.83,4.35v2.83h-6.54v-2.5h-16.03c-.54,0-.97,.43-.97,.97v15.06c0,.54,.43,.97,.97,.97h15.06c.54,0,.97-.43,.97-.97v-3.53h-6.5v-6.5h13.04v11.33c0,1.69-.61,3.15-1.83,4.35-1.22,1.21-2.68,1.81-4.38,1.81h-17.62Z"/></g></g></g></svg>