<?xml version="1.0" encoding="UTF-8"?><svg id="Layer_2" xmlns="http://www.w3.org/2000/svg" xmlns:xlink="http://www.w3.org/1999/xlink" viewBox="0 0 593.56 356"><defs><style>.cls-1{fill:url(#linear-gradient-2);}.cls-2{fill:#fff;}.cls-3{fill:#287eb7;}.cls-4{fill:#b52f28;}.cls-5{fill:url(#linear-gradient-3);}.cls-6{fill:url(#linear-gradient);}.cls-7{fill:url(#linear-gradient-4);}</style><linearGradient id="linear-gradient" x1="120.1" y1="93.99" x2="348.83" y2="366.59" gradientTransform="matrix(1, 0, 0, 1, 0, 0)" gradientUnits="userSpaceOnUse"><stop offset="0" stop-color="#c0382c"/><stop offset="1" stop-color="#e74b3c"/></linearGradient><linearGradient id="linear-gradient-2" x1="309.78" y1="168.03" x2="433.54" y2="64.18" gradientTransform="matrix(1, 0, 0, 1, 0, 0)" gradientUnits="userSpaceOnUse"><stop offset="0" stop-color="#3196da"/><stop offset="1" stop-color="#53bdf9"/></linearGradient><linearGradient id="linear-gradient-3" x1="278.4" y1="249.46" x2="278.4" y2="219.46" xlink:href="#linear-gradient-2"/><linearGradient id="linear-gradient-4" x1="315.15" y1="249.46" x2="315.15" y2="219.46" xlink:href="#linear-gradient-2"/></defs><g id="Logo"><g><path class="cls-6" d="M414.67,311.26c-31.42,27.83-72.72,44.74-117.9,44.74-84.72,0-155.8-59.48-173.67-138.88,17.13-1.58,34.29-2.92,51.45-4.03,9.52,33.13,32.18,60.74,61.94,76.82l3.31,35.09,26.06-23.67c9.9,2.48,20.25,3.8,30.91,3.8,31.48,0,60.34-11.5,82.56-30.53l35.34,36.65ZM131.97,110.73c19.93-1.79,39.87-3.24,59.83-4.37,8.21-11.99,18.42-22.52,30.15-31.08l-27.45-42.87c-27.66,19.48-49.53,46.63-62.52,78.33Z"/><path class="cls-1" d="M470.44,217.12c-7.18,31.93-22.98,60.62-44.8,83.54l-35.33-36.64c13.2-14.34,23.15-31.7,28.67-50.93,17.16,1.11,34.32,2.45,51.45,4.03ZM296.78,0c-32.59,0-63.15,8.8-89.45,24.15l27.45,42.87c18.35-10.29,39.5-16.16,61.99-16.16,43.54,0,82.05,22.01,104.98,55.5,19.96,1.13,39.9,2.58,59.83,4.37C435,45.83,371.14,0,296.78,0Z"/><g><path class="cls-2" d="M17.55,214.9c-4.53,.68-8.3-.26-11.31-2.83-3.01-2.57-4.35-6-4.04-10.31,.16-2.27,.32-4.53,.49-6.8,5.72-.91,11.44-1.78,17.16-2.64-.03,.51-.07,1.01-.1,1.52-.1,1.48-.2,2.95-.3,4.43,1.22-.18,2.44-.36,3.66-.54,11.4-1.68,22.82-3.25,34.25-4.71,2.14-.27,3.97-2.14,4.09-4.18,.11-1.98,.23-3.96,.34-5.94,.12-2.04-1.52-3.47-3.65-3.19-12.87,1.65-25.72,3.43-38.56,5.35-4.5,.67-8.24-.27-11.23-2.84-2.98-2.57-4.32-6.01-4.01-10.31,.36-5.01,.72-10.02,1.08-15.04,.31-4.3,2.16-8.25,5.55-11.81,3.39-3.56,7.3-5.69,11.74-6.35,14.29-2.13,28.6-4.1,42.93-5.9,4.38-.55,8.09,.52,11.15,3.2,3.05,2.68,4.47,6.17,4.24,10.47-.12,2.26-.24,4.52-.36,6.79-5.77,.67-11.54,1.37-17.31,2.1,.05-.82,.09-1.64,.14-2.46,.07-1.16,.13-2.32,.2-3.49-1.21,.15-2.42,.31-3.63,.46-11.31,1.45-22.6,3-33.89,4.66-2.12,.31-3.94,2.22-4.08,4.26-.13,1.98-.27,3.97-.4,5.95-.14,2.04,1.47,3.44,3.59,3.12,12.86-1.89,25.74-3.64,38.63-5.26,4.41-.56,8.16,.51,11.23,3.19,3.08,2.68,4.51,6.17,4.28,10.46-.27,5-.53,10-.8,15-.23,4.29-2.06,8.16-5.5,11.62-3.44,3.45-7.4,5.46-11.86,6.02-14.6,1.83-29.18,3.84-43.74,6.01Z"/><path class="cls-2" d="M88.21,205.7c1.28-25.34,2.57-50.69,3.85-76.03,5.67-.63,11.34-1.23,17.01-1.81-.46,9.92-.92,19.84-1.38,29.76,13.95-1.42,27.9-2.68,41.87-3.78,.36-9.91,.72-19.82,1.08-29.74,5.68-.45,11.36-.87,17.05-1.27-.81,25.3-1.62,50.6-2.43,75.9-5.79,.4-11.58,.83-17.37,1.29,.36-9.91,.72-19.82,1.08-29.74-14.02,1.11-28.04,2.37-42.04,3.8-.46,9.92-.92,19.84-1.38,29.76-5.78,.59-11.56,1.2-17.33,1.84Z"/><path class="cls-2" d="M192.28,197.05c-4.56,.25-8.43-1.04-11.59-3.9-3.16-2.86-4.67-6.42-4.55-10.71,.59-20.1,1.18-40.19,1.78-60.29,5.69-.36,11.37-.7,17.06-1.02-.47,18.58-.94,37.17-1.41,55.75-.05,2.03,1.65,3.58,3.8,3.47,11.41-.6,22.83-1.1,34.25-1.5,2.15-.08,3.92-1.78,3.95-3.81,.28-18.58,.56-37.15,.83-55.73,5.77-.19,11.53-.35,17.3-.48-.21,20.08-.43,40.16-.64,60.24-.05,4.28-1.73,7.99-5.05,11.13-3.33,3.14-7.24,4.78-11.73,4.92-14.68,.47-29.35,1.11-44.01,1.92Z"/><path class="cls-2" d="M263.36,194.46c.21-25.27,.41-50.55,.62-75.82,24.43-.43,48.87-.38,73.29,.15,.06,5.48,.11,10.95,.16,16.43-18.74-.41-37.48-.53-56.22-.38-.02,4.42-.03,8.85-.05,13.27,11.92-.1,23.83-.09,35.75,.04,.03,5.48,.05,10.95,.08,16.43-11.96-.13-23.93-.14-35.89-.04-.04,9.9-.08,19.8-.11,29.69-5.88,.05-11.75,.13-17.63,.23Z"/><path class="cls-2" d="M348.47,194.87c-.32-25.28-.64-50.55-.95-75.83,24.43,.67,48.84,1.82,73.23,3.45,.17,5.48,.34,10.96,.5,16.44-18.71-1.25-37.43-2.22-56.16-2.91,.07,4.42,.15,8.85,.22,13.27,11.91,.44,23.82,.99,35.72,1.65,.14,5.48,.28,10.96,.42,16.44-11.95-.67-23.9-1.22-35.86-1.66,.17,9.9,.33,19.8,.5,29.7-5.87-.22-11.75-.4-17.62-.56Z"/><path class="cls-2" d="M433.51,199.11c-.84-25.34-1.68-50.68-2.53-76.01,5.68,.41,11.37,.85,17.05,1.31,.74,19.86,1.49,39.72,2.23,59.59,18.97,1.55,37.91,3.39,56.84,5.52,.28,5.49,.56,10.98,.84,16.47-24.77-2.79-49.59-5.08-74.43-6.88Z"/><path class="cls-2" d="M518.33,207.19c-1.36-25.35-2.73-50.7-4.09-76.06,24.31,2.87,48.57,6.22,72.77,10.05,.39,5.51,.79,11.01,1.18,16.52-18.57-2.94-37.17-5.6-55.79-7.97,.26,4.44,.51,8.88,.77,13.32,11.84,1.51,23.68,3.13,35.5,4.87,.37,5.5,.73,11,1.1,16.51-11.87-1.75-23.75-3.38-35.64-4.89,.26,4.44,.51,8.88,.77,13.32,18.82,2.4,37.62,5.09,56.38,8.06,.39,5.51,.79,11.01,1.18,16.52-24.66-3.91-49.38-7.32-74.14-10.24Z"/></g><g><path class="cls-5" d="M269.57,249.46c-1.69,0-3.15-.6-4.35-1.81s-1.81-2.66-1.81-4.35v-17.67c0-1.69,.6-3.15,1.81-4.35s2.66-1.81,4.35-1.81h17.62c1.69,0,3.15,.6,4.38,1.81,1.22,1.21,1.83,2.66,1.83,4.35v2.83h-6.54v-2.5h-16.03c-.54,0-.97,.43-.97,.97v15.06c0,.54,.43,.97,.97,.97h15.06c.54,0,.97-.43,.97-.97v-3.53h-6.5v-6.5h13.04v11.33c0,1.69-.61,3.15-1.83,4.35-1.22,1.21-2.68,1.81-4.38,1.81h-17.62Z"/><path class="cls-7" d="M306.32,249.46c-1.69,0-3.15-.6-4.35-1.81s-1.81-2.66-1.81-4.35v-17.67c0-1.69,.6-3.15,1.81-4.35s2.66-1.81,4.35-1.81h17.62c1.69,0,3.15,.6,4.38,1.81,1.22,1.21,1.83,2.66,1.83,4.35v2.83h-6.54v-2.5h-16.03c-.54,0-.97,.43-.97,.97v15.06c0,.54,.43,.97,.97,.97h15.06c.54,0,.97-.43,.97-.97v-3.53h-6.5v-6.5h13.04v11.33c0,1.69-.61,3.15-1.83,4.35-1.22,1.21-2.68,1.81-4.38,1.81h-17.62Z"/></g><path class="cls-3" d="M593.56,232.51c-22.53-1.82-52.95-1.32-86.89,8.27-11.6,3.28-22.09,7.19-31.41,11.29,4.25-10.2,7.64-20.77,10.07-31.6l.42-1.87c36.03,3.61,71.98,8.24,107.82,13.91Z"/><path class="cls-3" d="M0,232.51c22.53-1.82,52.95-1.32,86.89,8.27,11.6,3.28,22.09,7.19,31.41,11.29-4.25-10.2-7.64-20.77-10.07-31.6l-.42-1.87c-36.03,3.61-71.98,8.24-107.82,13.91Z"/><path class="cls-4" d="M182.63,233.94c-17.85,1.04-35.69,2.32-53.52,3.86-2.4-6.72-4.41-13.62-6-20.68,17.13-1.58,34.29-2.92,51.45-4.03,2.08,7.23,4.79,14.21,8.07,20.85Z"/><path class="cls-3" d="M470.45,217.12c-1.59,7.06-3.6,13.96-6.01,20.68-17.82-1.54-35.65-2.82-53.5-3.86,3.27-6.65,5.98-13.62,8.06-20.85,17.16,1.11,34.32,2.45,51.45,4.03Z"/></g></g></svg>