<?xml version="1.0" encoding="UTF-8"?><svg id="Layer_2" xmlns="http://www.w3.org/2000/svg" xmlns:xlink="http://www.w3.org/1999/xlink" viewBox="0 0 592.94 356"><defs><style>.cls-1{fill:url(#linear-gradient-2);}.cls-2{fill:#fff;}.cls-3{fill:url(#linear-gradient-6);}.cls-4{fill:#287eb7;}.cls-5{fill:#e74b3c;}.cls-6{fill:#22a055;}.cls-7{fill:url(#linear-gradient-5);}.cls-8{fill:url(#linear-gradient-7);}.cls-9{fill:url(#linear-gradient-3);}.cls-10{fill:url(#linear-gradient);}.cls-11{fill:url(#linear-gradient-4);}.cls-12{fill:url(#linear-gradient-8);}.cls-13{fill:#2bbc66;}</style><linearGradient id="linear-gradient" x1="135.47" y1="101.67" x2="135.76" y2="102.02" gradientTransform="matrix(1, 0, 0, 1, 0, 0)" gradientUnits="userSpaceOnUse"><stop offset="0" stop-color="#c0382c"/><stop offset="1" stop-color="#e74b3c"/></linearGradient><linearGradient id="linear-gradient-2" x1="136.16" y1="99.23" x2="137.07" y2="100.32" xlink:href="#linear-gradient"/><linearGradient id="linear-gradient-3" x1="137.58" y1="97.14" x2="138.02" y2="97.67" xlink:href="#linear-gradient"/><linearGradient id="linear-gradient-4" x1="138.55" y1="94.79" x2="139.31" y2="95.69" xlink:href="#linear-gradient"/><linearGradient id="linear-gradient-5" x1="140.27" y1="91.04" x2="141.4" y2="92.39" xlink:href="#linear-gradient"/><linearGradient id="linear-gradient-6" x1="301.57" y1="173.49" x2="432.66" y2="63.5" gradientTransform="matrix(1, 0, 0, 1, 0, 0)" gradientUnits="userSpaceOnUse"><stop offset="0" stop-color="#3196da"/><stop offset="1" stop-color="#53bdf9"/></linearGradient><linearGradient id="linear-gradient-7" x1="278.09" y1="254.46" x2="278.09" y2="224.46" xlink:href="#linear-gradient-6"/><linearGradient id="linear-gradient-8" x1="314.85" y1="254.46" x2="314.85" y2="224.46" xlink:href="#linear-gradient-6"/></defs><g id="Logo"><g><g><path class="cls-4" d="M592.94,239.61c-20.87-2.14-48.99-2.52-81.02,4.39-15.18,3.28-28.6,7.63-40.11,12.18,4.12-9.2,7.51-18.72,10.12-28.46l.61-2.27c36.9,3.63,73.72,8.35,110.4,14.16Z"/><path class="cls-4" d="M0,239.61c20.87-2.14,48.99-2.52,81.02,4.39,15.18,3.28,28.6,7.63,40.11,12.18-4.12-9.2-7.51-18.72-10.12-28.46l-.61-2.27c-36.9,3.63-73.72,8.35-110.4,14.16Z"/></g><g><path class="cls-2" d="M449.92,187.99c-.94-23.09-1.89-46.17-2.83-69.26-6.4-.52-12.8-1.02-19.2-1.47,.99,27.68,1.97,55.35,2.96,83.03,2.92,2.84,4.55,4.44,7.48,7.29,22.66,1.71,45.3,3.83,67.91,6.35-.34-6.14-.68-12.28-1.02-18.42-17.61-1.97-35.25-3.69-52.9-5.16-.93-.92-1.46-1.44-2.39-2.35Z"/><path class="cls-2" d="M229.9,113.76c-.42,23.06-.83,46.11-1.25,69.17-.92,.88-1.43,1.37-2.35,2.25-10.38,.39-20.76,.86-31.14,1.42-.88-.79-1.37-1.24-2.25-2.04,.64-23.07,1.27-46.13,1.91-69.2-6.41,.35-12.82,.74-19.22,1.16-.91,27.67-1.82,55.34-2.72,83.01,2.74,2.46,4.27,3.84,7.02,6.3,20.27-1.25,40.55-2.18,60.84-2.78,2.87-2.72,4.47-4.25,7.33-6.95,.36-27.65,.71-55.29,1.07-82.94-6.41,.17-12.83,.36-19.24,.59Z"/><path class="cls-2" d="M417.96,134.92c-.2-6.13-.4-12.26-.6-18.39-22.14-1.45-44.29-2.51-66.46-3.16-2.72,2.55-4.25,3.99-6.99,6.56,.36,27.65,.71,55.29,1.07,82.94,6.57,.17,13.14,.37,19.71,.61-.21-11.89-.43-23.78-.65-35.67,14.16,.51,28.32,1.18,42.47,2.02-.18-6.13-.36-12.26-.54-18.38-14.08-.83-28.17-1.5-42.26-2.01-.09-5.04-.18-10.09-.27-15.13,.87-.81,1.36-1.27,2.24-2.08,17.44,.65,34.87,1.55,52.29,2.7Z"/><path class="cls-2" d="M586.26,153.73c-.48-6.16-.96-12.32-1.44-18.48-21.97-3.48-43.98-6.56-66.03-9.24-2.59,2.31-4.04,3.61-6.64,5.93,1.49,25.48,2.97,50.95,4.46,76.43,2.97,2.97,4.63,4.65,7.6,7.64,22.59,2.74,45.14,5.9,67.64,9.46-.48-6.16-.96-12.32-1.44-18.48-17.53-2.78-35.09-5.3-52.68-7.58-.95-.96-1.48-1.5-2.43-2.47-.32-5.06-.64-10.12-.96-15.19,14.08,1.81,28.15,3.77,42.2,5.9-.46-6.16-.92-12.31-1.38-18.47-13.98-2.12-27.98-4.07-41.99-5.87-.32-5.06-.64-10.12-.96-15.19,.83-.73,1.3-1.14,2.12-1.88,17.34,2.25,34.65,4.74,51.94,7.47Z"/><path class="cls-2" d="M7.64,141.69c-1.07,13.71-2.14,27.42-3.2,41.13,2.57,2.22,4.01,3.46,6.59,5.68,15.09-2.33,30.2-4.47,45.32-6.43,.84,.73,1.31,1.14,2.15,1.88-.28,4.34-.55,8.68-.83,13.02-.95,.96-1.48,1.5-2.43,2.47-10.32,1.34-20.64,2.76-30.94,4.27-.83-.71-1.3-1.12-2.13-1.84,.16-2.17,.32-4.34,.47-6.52-6.47,.96-12.94,1.95-19.41,2.97-.54,6.92-1.08,13.83-1.62,20.75,2.46,2.09,3.83,3.27,6.3,5.37,20.37-3.15,40.78-5.97,61.22-8.44,2.81-2.83,4.39-4.42,7.2-7.23,.8-13.67,1.59-27.34,2.39-41.02-2.63-2.32-4.1-3.62-6.71-5.93-15.06,1.83-30.11,3.85-45.14,6.05-.82-.72-1.29-1.12-2.11-1.84,.32-4.35,.63-8.69,.95-13.03,.94-.98,1.47-1.53,2.42-2.5,10.16-1.49,20.33-2.89,30.5-4.21,.83,.73,1.29,1.14,2.12,1.88-.14,2.17-.28,4.34-.41,6.51,6.42-.82,12.85-1.61,19.28-2.37,.4-6.9,.8-13.79,1.21-20.69-2.46-2.2-3.84-3.43-6.29-5.62-19.96,2.42-39.88,5.17-59.77,8.24-2.78,2.91-4.35,4.55-7.14,7.47Z"/><path class="cls-2" d="M333.46,131.3c-.06-6.12-.12-12.25-.18-18.37-22.17-.44-44.34-.49-66.51-.13-2.79,2.68-4.35,4.19-7.14,6.88-.28,27.64-.55,55.29-.83,82.93,6.57-.13,13.14-.23,19.71-.29,.06-11.89,.11-23.77,.17-35.65,14.17-.13,28.34-.11,42.51,.08-.04-6.12-.08-12.25-.12-18.37-14.1-.19-28.2-.21-42.3-.08,.02-5.04,.05-10.08,.07-15.13,.89-.85,1.39-1.33,2.29-2.18,17.45-.14,34.89-.04,52.34,.31Z"/><path class="cls-2" d="M145.87,118.73c-.46,11.18-.91,22.37-1.37,33.55-.92,.92-1.44,1.44-2.37,2.35-11.02,.92-22.04,1.93-33.05,3.05,.6-11.92,1.2-23.83,1.8-35.74-6.39,.65-12.78,1.33-19.17,2.04-1.66,29.98-3.33,59.97-4.99,89.95,6.54-.73,13.09-1.43,19.63-2.09,.56-11.19,1.13-22.38,1.69-33.58,.94-.94,1.46-1.46,2.4-2.4,11.06-1.11,22.13-2.11,33.21-3.02-.49,11.9-.97,23.81-1.46,35.71,6.56-.54,13.11-1.04,19.67-1.51,1.07-29.93,2.13-59.86,3.2-89.79-6.4,.46-12.81,.95-19.2,1.47Z"/></g><g><path class="cls-5" d="M220.98,280.25l-32.6,39.09c29.98,22.99,67.47,36.66,108.09,36.66,40.74,0,78.33-13.76,108.36-36.87l-32.67-39.03c-21.16,15.73-47.35,25.04-75.69,25.04-28.24,0-54.37-9.26-75.49-24.89Z"/><path class="cls-10" d="M135.84,101.36c-.15,.32-.3,.65-.45,.97,.15-.32,.3-.65,.45-.97Z"/><path class="cls-1" d="M137.4,98.2c-.53,1.05-1.05,2.1-1.56,3.16,.51-1.06,1.03-2.11,1.56-3.16Z"/><path class="cls-9" d="M138.21,96.62c-.27,.53-.54,1.05-.81,1.58,.27-.53,.54-1.06,.81-1.58Z"/><path class="cls-11" d="M139.65,93.86c-.49,.91-.97,1.83-1.44,2.75,.48-.92,.95-1.84,1.44-2.75Z"/><path class="cls-7" d="M142.03,89.57c-.82,1.42-1.6,2.85-2.38,4.29,.78-1.44,1.57-2.88,2.38-4.29Z"/><path class="cls-13" d="M209.57,85.29c-.84,.79-1.68,1.59-2.5,2.41-.65,.63-1.28,1.28-1.91,1.93-.31,.31-.61,.63-.91,.95-.57,.59-1.12,1.18-1.66,1.78-.43,.47-.86,.94-1.26,1.41-.19,.21-.37,.41-.55,.62-.44,.49-.86,.98-1.27,1.47-.5,.59-1,1.19-1.49,1.79-.48,.57-.94,1.14-1.38,1.72-.05,.06-.09,.11-.13,.16-.47,.59-.94,1.19-1.38,1.79-20.45,1.13-40.9,2.6-61.32,4.42,2.47-5.54,5.22-10.94,8.22-16.17,.5-.87,1.01-1.73,1.53-2.6,.51-.86,1.03-1.72,1.56-2.57,1.05-1.7,2.13-3.39,3.26-5.06,.56-.83,1.12-1.66,1.69-2.48,.57-.82,1.15-1.64,1.73-2.46,1.12-1.55,2.26-3.09,3.42-4.61,.06-.07,.11-.14,.16-.2,.61-.79,1.23-1.58,1.85-2.36,.63-.78,1.25-1.56,1.89-2.33,.64-.77,1.28-1.54,1.93-2.3,.64-.76,1.3-1.51,1.96-2.26,1.4-1.58,2.82-3.14,4.27-4.67,.49-.52,.99-1.04,1.49-1.56,.47-.48,.93-.95,1.41-1.42,.47-.48,.94-.95,1.41-1.42,1.77-1.74,3.58-3.45,5.42-5.12l32.56,39.14Z"/><path class="cls-13" d="M206.29,267.54l-33.92,37.92h-.01c-.18-.17-.36-.34-.54-.52-.19-.19-.39-.38-.58-.57-.03-.02-.05-.05-.07-.07h-.01c-.54-.54-1.07-1.08-1.61-1.62-.21-.21-.43-.43-.64-.65-.18-.19-.36-.38-.55-.57-.12-.13-.25-.26-.37-.39-.6-.62-1.19-1.25-1.78-1.89-.82-.87-1.62-1.75-2.41-2.64-13.74-15.34-24.85-33.07-32.62-52.49-.84-2.06-1.63-4.15-2.38-6.25-.13-.37-.26-.74-.38-1.11-.88-2.48-1.69-4.98-2.44-7.51-.5-1.68-.98-3.38-1.44-5.08,17.31-1.58,34.62-2.92,51.95-4.02,.98,2.81,2.07,5.58,3.26,8.3,.13,.32,.27,.64,.42,.96,.24,.54,.48,1.07,.73,1.6,.15,.33,.3,.65,.46,.98,.3,.68,.63,1.35,.96,2.02,.29,.59,.59,1.18,.89,1.77,.11,.23,.23,.45,.35,.68,.29,.56,.58,1.11,.88,1.67,.3,.55,.6,1.1,.91,1.65,.29,.52,.58,1.04,.88,1.56,.44,.77,.89,1.53,1.34,2.28,.2,.32,.4,.65,.6,.97,.34,.57,.7,1.13,1.06,1.69,.13,.22,.27,.43,.41,.65,.47,.72,.94,1.44,1.43,2.16,.23,.34,.46,.68,.69,1.02,.32,.46,.65,.93,.98,1.39,.53,.75,1.07,1.5,1.63,2.25s1.12,1.49,1.69,2.22c.48,.62,.97,1.24,1.47,1.85,.27,.35,.56,.69,.84,1.03l.03,.03c.5,.62,1.02,1.23,1.54,1.84,.58,.68,1.16,1.34,1.75,2l.03,.03c.11,.12,.22,.25,.34,.37,.58,.66,1.18,1.31,1.79,1.95,.55,.6,1.12,1.19,1.69,1.77,.07,.08,.15,.16,.23,.24,.05,.05,.1,.1,.15,.15h.01c.12,.14,.24,.26,.36,.38Z"/><path class="cls-3" d="M458.88,105.16c-.4-.91-.81-1.81-1.24-2.7-.23-.5-.46-.99-.7-1.48-.28-.58-.56-1.16-.85-1.73-.18-.39-.38-.77-.57-1.15-.29-.57-.57-1.13-.87-1.69-.25-.5-.51-1-.79-1.5-.18-.37-.38-.73-.58-1.09-.25-.48-.52-.97-.79-1.45-.34-.63-.69-1.26-1.06-1.89-.11-.22-.23-.44-.37-.65-.37-.67-.76-1.33-1.15-1.99-.19-.33-.38-.65-.57-.96-.36-.61-.73-1.22-1.11-1.82-.2-.35-.42-.7-.64-1.04-.36-.59-.74-1.18-1.11-1.76-.14-.22-.28-.44-.42-.65-.53-.83-1.07-1.64-1.62-2.46-.02-.04-.04-.08-.07-.11-.56-.83-1.12-1.65-1.69-2.47-.05-.08-.11-.16-.17-.24-.6-.86-1.21-1.71-1.82-2.56-.55-.76-1.1-1.51-1.66-2.25-.74-1-1.5-1.99-2.27-2.97-.64-.82-1.28-1.62-1.93-2.42-.02-.04-.05-.08-.09-.11-.67-.83-1.35-1.65-2.04-2.47-.47-.57-.95-1.13-1.44-1.69-.34-.4-.69-.8-1.04-1.2-1.3-1.48-2.62-2.94-3.97-4.37-.74-.79-1.48-1.57-2.24-2.34-.75-.77-1.51-1.54-2.28-2.3-.62-.62-1.25-1.24-1.89-1.85-.92-.89-1.85-1.77-2.79-2.62-.79-.74-1.59-1.46-2.4-2.18-2.42-2.16-4.89-4.25-7.43-6.26-.84-.67-1.69-1.34-2.55-1.99-1.71-1.33-3.45-2.61-5.22-3.86-.88-.63-1.77-1.25-2.66-1.86-.89-.61-1.79-1.22-2.7-1.81-1.77-1.17-3.57-2.31-5.39-3.42-.16-.1-.32-.19-.48-.29-.8-.48-1.61-.96-2.42-1.43-.86-.5-1.72-1-2.59-1.48-.84-.48-1.68-.94-2.53-1.39-.49-.27-.98-.54-1.48-.78-.66-.36-1.32-.7-1.99-1.04-.97-.5-1.94-.99-2.92-1.46-.98-.48-1.97-.95-2.96-1.41-.97-.45-1.94-.89-2.91-1.33-.05-.03-.11-.05-.16-.07-.97-.43-1.95-.85-2.93-1.26-.92-.39-1.84-.77-2.77-1.14-.22-.09-.44-.18-.66-.26-.82-.33-1.64-.65-2.47-.96-.13-.06-.26-.11-.4-.15-.82-.31-1.64-.61-2.46-.91-.28-.1-.56-.2-.84-.3-.86-.3-1.72-.6-2.59-.89-.08-.03-.15-.06-.23-.08-1.01-.34-2.03-.67-3.06-.99-.87-.28-1.74-.55-2.62-.8-.32-.11-.64-.2-.96-.29-.88-.26-1.77-.51-2.67-.76-.05-.02-.11-.03-.17-.04-.91-.25-1.82-.5-2.74-.73-.27-.07-.54-.14-.82-.21-.95-.24-1.9-.47-2.86-.69-1.03-.24-2.07-.48-3.11-.7-.08-.02-.16-.04-.24-.05-1.07-.23-2.13-.45-3.2-.65-.81-.16-1.61-.31-2.42-.45-.42-.08-.84-.16-1.27-.23-.98-.17-1.97-.33-2.96-.48-.85-.14-1.7-.26-2.56-.37-2.5-.36-5.02-.66-7.56-.9-1.13-.11-2.27-.21-3.41-.3-1.14-.09-2.28-.16-3.42-.23-.61-.04-1.21-.07-1.81-.09-.6-.04-1.2-.06-1.81-.08-2.24-.09-4.5-.13-6.76-.13-1.69,0-3.37,.02-5.05,.08-.39,0-.77,.02-1.16,.03-.14,0-.29,.01-.44,.01-.65,.03-1.29,.05-1.94,.09-.33,0-.67,.03-1,.05-.27,.01-.54,.02-.81,.04-.03,0-.05,0-.08,.01-.3,0-.59,.03-.89,.06-.44,.02-.89,.05-1.33,.08-.13,0-.25,.02-.38,.03-.49,.03-.98,.07-1.47,.12-.23,0-.46,.03-.69,.05-.45,.03-.9,.07-1.34,.12-.39,.03-.78,.07-1.16,.11-.74,.07-1.48,.15-2.22,.24-.6,.07-1.21,.13-1.81,.21-.09,0-.18,.02-.26,.03-.69,.08-1.38,.17-2.07,.26-.69,.1-1.38,.2-2.07,.31-1.63,.23-3.25,.49-4.86,.78-.59,.1-1.18,.21-1.77,.32-1.11,.21-2.22,.42-3.32,.65-.39,.08-.78,.17-1.17,.25-.43,.09-.86,.18-1.28,.28-.66,.14-1.32,.29-1.98,.45-.29,.07-.59,.14-.88,.21-.86,.2-1.72,.41-2.58,.64-.4,.1-.79,.2-1.19,.31-.67,.17-1.34,.35-2.01,.53-.8,.22-1.6,.45-2.39,.68-.25,.07-.5,.14-.74,.21-.67,.2-1.33,.4-1.99,.61-1.13,.34-2.26,.7-3.38,1.08-.28,.08-.55,.18-.83,.27-.55,.19-1.1,.37-1.65,.57-.46,.15-.92,.31-1.37,.47-.03,.02-.07,.03-.11,.04-.41,.15-.83,.3-1.24,.46-.91,.33-1.81,.66-2.71,1.01-.66,.25-1.32,.51-1.97,.77-.14,.05-.27,.1-.41,.16-.1,.04-.2,.08-.3,.13-3.57,1.43-7.08,2.98-10.52,4.64-.34,.15-.68,.32-1.01,.48-.48,.23-.97,.47-1.46,.72-.03,.02-.07,.04-.11,.06-.85,.42-1.7,.86-2.55,1.3-1.69,.87-3.37,1.78-5.02,2.72-.83,.47-1.66,.94-2.48,1.42-4.4,2.56-8.68,5.31-12.84,8.25-2.3,1.62-4.57,3.3-6.79,5.03l32.87,38.86c.45-.34,.92-.68,1.38-1.02,4.37-3.19,8.96-6.12,13.73-8.74,1.76-.97,3.54-1.9,5.35-2.78,.1-.06,.19-.1,.29-.15,.42-.21,.86-.41,1.29-.61,1.56-.75,3.15-1.46,4.75-2.13,.95-.41,1.91-.8,2.88-1.18,.84-.33,1.67-.65,2.52-.96,.27-.11,.54-.21,.81-.29,.73-.28,1.46-.53,2.19-.78,1.24-.43,2.49-.83,3.74-1.22,.34-.1,.69-.21,1.04-.31,.69-.21,1.38-.41,2.08-.6,3.41-.95,6.88-1.77,10.39-2.43,.63-.12,1.27-.24,1.9-.35,.44-.08,.89-.15,1.34-.22,.45-.08,.9-.15,1.35-.21,.49-.08,.98-.15,1.47-.22,.06,0,.12-.02,.18-.02,.6-.09,1.21-.17,1.81-.24,1.6-.2,3.21-.37,4.83-.51,.62-.05,1.25-.1,1.88-.14,.04-.01,.08-.01,.12-.01,1.01-.07,2.03-.13,3.05-.18,.54-.02,1.09-.04,1.64-.06,.15-.01,.31-.02,.46-.02,.54-.01,1.09-.02,1.63-.03,.7,0,1.4-.02,2.1-.02h.01c1.22,0,2.44,.02,3.65,.05,.5,.02,1.01,.03,1.51,.06,2.13,.08,4.24,.22,6.33,.41,.06,0,.12,0,.18,.01,.46,.04,.92,.09,1.37,.14,1.38,.13,2.74,.3,4.1,.48,.62,.09,1.24,.17,1.86,.27,.44,.06,.88,.13,1.32,.21,.54,.08,1.08,.17,1.62,.27,.53,.09,1.06,.19,1.59,.29,.76,.14,1.52,.29,2.28,.45,.64,.13,1.28,.27,1.92,.41,2.25,.5,4.47,1.06,6.67,1.69,1.51,.42,3.01,.87,4.49,1.35,.05,0,.1,.03,.14,.05,1,.31,1.99,.65,2.97,.99,.45,.16,.9,.32,1.35,.49,.97,.35,1.93,.71,2.89,1.09,.96,.37,1.91,.76,2.86,1.16,.03,.01,.06,.02,.1,.04,.91,.38,1.82,.78,2.72,1.19,.93,.42,1.86,.85,2.78,1.29l27.41-16.71-3.08,31.94h0c.06,.06,.13,.11,.2,.17,.28,.21,.56,.43,.83,.66,.02,0,.05,.03,.07,.05,.25,.2,.5,.41,.75,.63,.73,.6,1.45,1.21,2.16,1.82,.72,.61,1.43,1.24,2.13,1.88,1.42,1.28,2.82,2.6,4.18,3.96,.16,.15,.31,.31,.47,.47,1.35,1.33,2.65,2.7,3.93,4.1,.63,.69,1.25,1.39,1.87,2.09,.86,.97,1.69,1.95,2.5,2.94,.63,.77,1.26,1.55,1.88,2.33,.09,.1,.17,.21,.25,.31,.37,.48,.74,.95,1.1,1.43h.01c20.45,1.13,40.88,2.6,61.3,4.42-.08-.19-.17-.39-.26-.58Zm-42.42,114.92c-.08,.22-.16,.44-.24,.66-.15,.42-.3,.83-.46,1.24-.19,.53-.39,1.06-.59,1.58-.68,1.8-1.41,3.58-2.19,5.33-.38,.85-.76,1.7-1.15,2.54-.33,.74-.68,1.48-1.06,2.21-.03,.1-.08,.2-.15,.3-.39,.78-.78,1.57-1.18,2.34-2.41,4.66-5.1,9.15-8.05,13.45-.47,.72-.97,1.43-1.49,2.13-1.01,1.41-2.05,2.8-3.12,4.17-.5,.64-1,1.27-1.51,1.9-.06,.09-.14,.19-.22,.28-.46,.57-.93,1.13-1.4,1.68-1.17,1.4-2.39,2.78-3.63,4.13-1.16,1.26-2.34,2.49-3.55,3.7l33.85,38c1.71-1.66,3.38-3.35,5.02-5.07,.11-.11,.22-.22,.32-.33,.59-.61,1.17-1.23,1.73-1.85,1.15-1.24,2.27-2.5,3.38-3.77,1.11-1.28,2.2-2.57,3.27-3.87,.36-.44,.72-.87,1.07-1.31,1.02-1.26,2.02-2.54,3-3.84,.39-.49,.76-.99,1.14-1.5,3.88-5.2,7.48-10.62,10.78-16.23,.43-.74,.86-1.47,1.28-2.21,.42-.74,.84-1.48,1.24-2.23l.93-1.71c.14-.26,.28-.51,.42-.77,.35-.67,.7-1.35,1.05-2.03,.38-.75,.76-1.5,1.14-2.26,.01-.01,.02-.03,.02-.04,.33-.66,.65-1.33,.97-1.99,.12-.25,.24-.49,.34-.73,.3-.63,.59-1.25,.88-1.88,.36-.78,.71-1.56,1.06-2.34,.34-.79,.68-1.57,1.02-2.36,.29-.68,.58-1.35,.85-2.04,.23-.54,.45-1.09,.66-1.64,1.12-2.78,2.16-5.6,3.12-8.45,.26-.75,.52-1.51,.76-2.27,.18-.53,.35-1.07,.51-1.61,.2-.62,.39-1.24,.58-1.86,.27-.88,.52-1.75,.78-2.63,.01-.06,.03-.12,.05-.18,.24-.87,.49-1.74,.72-2.62-17.3-1.58-34.62-2.92-51.95-4.02Z"/><path class="cls-6" d="M187.41,243.27c-18.28,1.12-36.55,2.53-54.79,4.22-3.22-7.54-5.92-15.36-8.08-23.39,17.31-1.58,34.63-2.92,51.96-4.02,2.86,8.14,6.52,15.9,10.91,23.19Z"/><path class="cls-4" d="M468.41,224.1c-2.15,8.03-4.85,15.84-8.06,23.39-18.25-1.69-36.52-3.1-54.8-4.22,4.39-7.29,8.05-15.06,10.91-23.19,17.33,1.1,34.65,2.44,51.95,4.02Z"/></g><g><path class="cls-8" d="M269.26,254.46c-1.69,0-3.15-.6-4.35-1.81s-1.81-2.66-1.81-4.35v-17.67c0-1.69,.6-3.15,1.81-4.35s2.66-1.81,4.35-1.81h17.62c1.69,0,3.15,.6,4.38,1.81,1.22,1.21,1.83,2.66,1.83,4.35v2.83h-6.54v-2.5h-16.03c-.54,0-.97,.43-.97,.97v15.06c0,.54,.43,.97,.97,.97h15.06c.54,0,.97-.43,.97-.97v-3.53h-6.5v-6.5h13.04v11.33c0,1.69-.61,3.15-1.83,4.35-1.22,1.21-2.68,1.81-4.38,1.81h-17.62Z"/><path class="cls-12" d="M306.01,254.46c-1.69,0-3.15-.6-4.35-1.81s-1.81-2.66-1.81-4.35v-17.67c0-1.69,.6-3.15,1.81-4.35s2.66-1.81,4.35-1.81h17.62c1.69,0,3.15,.6,4.38,1.81,1.22,1.21,1.83,2.66,1.83,4.35v2.83h-6.54v-2.5h-16.03c-.54,0-.97,.43-.97,.97v15.06c0,.54,.43,.97,.97,.97h15.06c.54,0,.97-.43,.97-.97v-3.53h-6.5v-6.5h13.04v11.33c0,1.69-.61,3.15-1.83,4.35-1.22,1.21-2.68,1.81-4.38,1.81h-17.62Z"/></g></g></g></svg>