<svg width="48" height="48" xmlns="http://www.w3.org/2000/svg" fill="#fff"><path fill-rule="evenodd" clip-rule="evenodd" d="m44.448 12.688 2.797 2.796a2.596 2.596 0 0 1 .005 3.656L19.143 47.246a2.593 2.593 0 0 1-3.656 0l-2.805-2.805c-.626-.626-.725-1.584-.54-2.45a5.168 5.168 0 0 0-6.132-6.13c-.866.184-1.824.086-2.45-.54L.754 32.516a2.591 2.591 0 0 1 0-3.655L28.856.753a2.593 2.593 0 0 1 3.656 0l2.806 2.805c.626.626.724 1.584.54 2.45a5.172 5.172 0 0 0 6.121 6.138c.872-.184 1.84-.09 2.47.54Zm-29.215 8.985c-.689.7-.695 1.81-.014 2.482.682.671 1.793.648 2.482-.051l2.645-2.377 7.225 7.697c.681.672 1.792.649 2.482-.051.689-.7.695-1.81.014-2.482l-7.225-7.697 2.34-2.288c.69-.7.695-1.81.014-2.482-.681-.671-1.792-.648-2.482.051l-7.48 7.198Z"></path></svg>