<?xml version="1.0" encoding="utf-8"?>
<!-- Generator: Adobe Illustrator 23.0.2, SVG Export Plug-In . SVG Version: 6.00 Build 0)  -->
<svg version="1.1" id="Layer_1" xmlns="http://www.w3.org/2000/svg" xmlns:xlink="http://www.w3.org/1999/xlink" x="0px" y="0px"
	 viewBox="0 0 57 68" style="enable-background:new 0 0 57 68;" xml:space="preserve">
<style type="text/css">
	.st0{fill:url(#SVGID_1_);}
	.st1{opacity:0.1;fill:#FFFFFF;enable-background:new    ;}
	.st2{fill:url(#SVGID_2_);}
	.st3{fill:url(#SVGID_3_);}
	.st4{fill:url(#SVGID_4_);}
</style>
<linearGradient id="SVGID_1_" gradientUnits="userSpaceOnUse" x1="2.1807" y1="29.0451" x2="54.1265" y2="29.0451">
	<stop  offset="0.1781" style="stop-color:#DE1700"/>
	<stop  offset="0.2124" style="stop-color:#E61F0B"/>
	<stop  offset="0.2881" style="stop-color:#F42C1C"/>
	<stop  offset="0.3692" style="stop-color:#FC3427"/>
	<stop  offset="0.4644" style="stop-color:#FF362A"/>
	<stop  offset="0.7281" style="stop-color:#C31700"/>
</linearGradient>
<path class="st0" d="M2.2,56.5l51.9,0.7L45,3.8c0,0,0,0,0-0.1c0-1.4-8-2.7-17.8-2.9C17.5,0.7,9.7,1.7,9.5,3.2l0,0L2.2,56.5z"/>
<path class="st1" d="M2.2,56.5l51.9,0.7L45,3.8c0,0,0,0,0-0.1c0-1.4-8-2.7-17.8-2.9C17.5,0.7,9.7,1.7,9.5,3.2l0,0L2.2,56.5z"/>
<linearGradient id="SVGID_2_" gradientUnits="userSpaceOnUse" x1="53.5465" y1="8.1825" x2="2.4848" y2="7.4962" gradientTransform="matrix(1 0 0 -1 0 70)">
	<stop  offset="0" style="stop-color:#EFF0F1"/>
	<stop  offset="0.2932" style="stop-color:#BFCDDA"/>
	<stop  offset="0.5211" style="stop-color:#F2F2F2"/>
	<stop  offset="0.7174" style="stop-color:#F9F9F9"/>
	<stop  offset="0.8979" style="stop-color:#F3F3F3"/>
	<stop  offset="0.9587" style="stop-color:#D2E5F9"/>
	<stop  offset="1" style="stop-color:#ADCFF0"/>
</linearGradient>
<path class="st2" d="M4,65.1c0.2,1,1,1.6,2,1.6l44.7-0.1c1,0,1.8-0.7,1.9-1.7l0.6-4.3c0.2-1.2-0.8-2.3-2-2.3L4.8,57.7
	c-1.3,0-2.2,1.1-1.9,2.4L4,65.1z"/>
<linearGradient id="SVGID_3_" gradientUnits="userSpaceOnUse" x1="28.0108" y1="14.7093" x2="28.0178" y2="11.8274" gradientTransform="matrix(1 0 0 -1 0 70)">
	<stop  offset="0" style="stop-color:#ECECEC"/>
	<stop  offset="1" style="stop-color:#BDBDD8"/>
</linearGradient>
<path class="st3" d="M2.3,58.2l51.5-0.1c0.9,0,1.7-0.6,2.1-1.5l0,0c0.3-0.7-0.2-1.4-0.9-1.4L1,55.4c-0.7,0-1.1,0.7-0.9,1.4
	C0.5,57.6,1.4,58.2,2.3,58.2z"/>
<linearGradient id="SVGID_4_" gradientUnits="userSpaceOnUse" x1="28.0011" y1="12.1451" x2="28.0101" y2="9.3851" gradientTransform="matrix(1 0 0 -1 0 70)">
	<stop  offset="0" style="stop-color:#ECECEC"/>
	<stop  offset="1" style="stop-color:#B3B8D1"/>
</linearGradient>
<path class="st4" d="M2,60.7l52.1-0.2c1,0,1.6-1.1,1.1-1.9l-0.4-0.8L1.2,57.9l-0.4,0.8C0.3,59.6,1,60.7,2,60.7z"/>
</svg>
