<svg width="26" height="28" viewBox="0 0 26 28" fill="none" xmlns="http://www.w3.org/2000/svg">
<path d="M26 15.5C26 16.7 25.69 17.8899 25.1 18.9399C24.51 19.9799 23.66 20.86 22.63 21.49C21.6 22.11 20.43 22.46 19.22 22.5C18.02 22.54 16.83 22.26 15.76 21.71L17.25 26.1799C17.31 26.3299 17.32 26.4899 17.29 26.6499C17.27 26.8099 17.21 26.9601 17.12 27.0801C17.02 27.2101 16.9 27.3199 16.76 27.3899C16.62 27.4599 16.4601 27.5 16.3101 27.5H9.68994C9.53994 27.5 9.37999 27.4599 9.23999 27.3899C9.09999 27.3199 8.98001 27.2101 8.88 27.0801C8.79 26.9601 8.72996 26.8099 8.70996 26.6499C8.67996 26.4899 8.69 26.3299 8.75 26.1799L10.24 21.71C9.16999 22.26 7.98003 22.54 6.78003 22.5C5.57003 22.46 4.39999 22.11 3.37 21.49C2.34 20.86 1.49002 19.9799 0.900024 18.9399C0.310024 17.8899 0 16.7 0 15.5C0 8.8 12.21 0.910078 12.73 0.580078C12.81 0.530078 12.9 0.5 13 0.5C13.1 0.5 13.19 0.530078 13.27 0.580078C13.79 0.910078 26 8.8 26 15.5Z" fill="white"></path>
</svg>