<svg xmlns="http://www.w3.org/2000/svg" viewBox="132.23 362 813.93 356">
  <g transform="matrix(1, 0, 0, 1, 540, 540)" id="9ee08bef-2347-409d-a334-94d972e73280"/>
  <g transform="matrix(1, 0, 0, 1, 540, 540)" id="f01e5a0a-868d-4770-818d-0a49fa2439a7"/>
  <g transform="matrix(1, 0, 0, 1, 775.900024, 602.820007)">
    <path style="stroke: none; stroke-width: 1; stroke-dasharray: none; stroke-linecap: butt; stroke-dashoffset: 0; stroke-linejoin: miter; stroke-miterlimit: 4; fill: rgb(40,126,183); fill-rule: nonzero; opacity: 1;" vector-effect="non-scaling-stroke" transform=" translate(-532.38, -240.81)" d="M 592.94 239.61 C 572.07 237.47000000000003 543.95 237.09 511.9200000000001 244 C 496.74000000000007 247.28 483.32000000000005 251.63 471.81000000000006 256.18 C 475.93000000000006 246.98000000000002 479.32000000000005 237.46 481.93000000000006 227.72 L 482.5400000000001 225.45 C 519.44 229.07999999999998 556.2600000000001 233.79999999999998 592.94 239.60999999999999 Z" stroke-linecap="round"/>
  </g>
  <g transform="matrix(1, 0, 0, 1, 304.089996, 602.820007)">
    <path style="stroke: none; stroke-width: 1; stroke-dasharray: none; stroke-linecap: butt; stroke-dashoffset: 0; stroke-linejoin: miter; stroke-miterlimit: 4; fill: rgb(40,126,183); fill-rule: nonzero; opacity: 1;" vector-effect="non-scaling-stroke" transform=" translate(-60.56, -240.81)" d="M 0 239.61 C 20.87 237.47000000000003 48.99 237.09 81.02 244 C 96.19999999999999 247.28 109.62 251.63 121.13 256.18 C 117.00999999999999 246.98000000000002 113.61999999999999 237.46 111.00999999999999 227.72 L 110.39999999999999 225.45 C 73.5 229.07999999999998 36.67999999999999 233.79999999999998 -1.4210854715202004e-14 239.60999999999999 Z" stroke-linecap="round"/>
  </g>
  <g transform="matrix(1, 0, 0, 1, 512.98999, 556.200012)">
    <linearGradient id="SVGID_linear-gradient_3" gradientUnits="userSpaceOnUse" gradientTransform="matrix(1 0 0 1 0 0)" x1="119.79" y1="93.99" x2="348.53" y2="366.59">
      <stop offset="0" style="stop-color:rgb(192,56,44);stop-opacity: 1"/>
      <stop offset="1" style="stop-color:rgb(231,75,60);stop-opacity: 1"/>
    </linearGradient>
    <path style="stroke: none; stroke-width: 1; stroke-dasharray: none; stroke-linecap: butt; stroke-dashoffset: 0; stroke-linejoin: miter; stroke-miterlimit: 4; fill: url(#SVGID_linear-gradient_3); fill-rule: nonzero; opacity: 1;" vector-effect="non-scaling-stroke" transform=" translate(-269.46, -194.2)" d="M 379.04 274.61 C 356.81 293.64 327.96000000000004 305.14 296.48 305.14 C 285.82 305.14 275.46000000000004 303.82 265.57 301.34 L 239.51 325.01 L 236.2 289.91999999999996 C 208.56 274.97999999999996 187.04 250.08999999999997 176.5 220.07999999999996 C 159.17000000000002 221.17999999999995 141.85 222.51999999999995 124.53999999999999 224.09999999999997 C 144.89 299.97999999999996 214.26 356 296.48 356 C 341.66 356 382.95000000000005 339.09 414.37 311.26 L 379.04 274.61 Z M 194.19 32.4 C 168 50.84 146.99 76.17 133.81 105.74000000000001 C 154.23000000000002 103.92000000000002 174.68 102.45 195.13 101.32000000000001 C 202.65 91.4 211.59 82.61000000000001 221.65 75.27000000000001 L 194.19 32.40000000000001 Z" stroke-linecap="round"/>
  </g>
  <g transform="matrix(1, 0, 0, 1, 581.25, 512.330017)">
    <linearGradient id="SVGID_linear-gradient-2_4" gradientUnits="userSpaceOnUse" gradientTransform="matrix(1 0 0 1 0 0)" x1="309.48" y1="168.04" x2="433.24" y2="64.19">
      <stop offset="0" style="stop-color:rgb(49,150,218);stop-opacity: 1"/>
      <stop offset="1" style="stop-color:rgb(83,189,249);stop-opacity: 1"/>
    </linearGradient>
    <path style="stroke: none; stroke-width: 1; stroke-dasharray: none; stroke-linecap: butt; stroke-dashoffset: 0; stroke-linejoin: miter; stroke-miterlimit: 4; fill: url(#SVGID_linear-gradient-2_4); fill-rule: nonzero; opacity: 1;" vector-effect="non-scaling-stroke" transform=" translate(-337.72, -150.33)" d="M 416.46 220.08 C 410.68 236.53 401.60999999999996 251.44 390.02 264.02 L 425.34999999999997 300.65999999999997 C 445.56999999999994 279.41999999999996 460.60999999999996 253.22999999999996 468.40999999999997 224.09999999999997 C 451.10999999999996 222.51999999999995 433.78999999999996 221.17999999999998 416.46 220.07999999999996 Z M 296.48 0 C 263.89 0 233.32000000000002 8.8 207.03000000000003 24.15 L 234.48000000000002 67.02 C 252.83 56.73 273.98 50.86 296.48 50.86 C 337.8 50.86 374.59000000000003 70.68 397.83000000000004 101.32 L 397.84000000000003 101.32 C 418.29 102.44999999999999 438.73 103.91999999999999 459.15000000000003 105.74 C 431.39 43.49 368.92 0 296.48 0 Z" stroke-linecap="round"/>
  </g>
  <g transform="matrix(1, 0, 0, 1, 521.630005, 601.469971)"/>
  <g transform="matrix(1, 0, 0, 1, 558.380005, 601.469971)">
    <text style="white-space: pre; fill: rgb(51, 51, 51); font-family: Arial, sans-serif; font-size: 35.2px;" x="-92.473" y="-77.796"> </text>
  </g>
  <g transform="matrix(1, 0, 0, 1, 399.5, 595.789978)">
    <path style="stroke: none; stroke-width: 1; stroke-dasharray: none; stroke-linecap: butt; stroke-dashoffset: 0; stroke-linejoin: miter; stroke-miterlimit: 4; fill: rgb(181,47,40); fill-rule: nonzero; opacity: 1;" vector-effect="non-scaling-stroke" transform=" translate(-155.97, -233.79)" d="M 187.41 243.27 C 169.13 244.39000000000001 150.86 245.8 132.62 247.49 C 129.4 239.95000000000002 126.7 232.13 124.54 224.10000000000002 C 141.85 222.52 159.17000000000002 221.18000000000004 176.5 220.08 C 179.36 228.22000000000003 183.02 235.98000000000002 187.41 243.27 Z" stroke-linecap="round"/>
  </g>
  <g transform="matrix(1, 0, 0, 1, 680.51001, 595.789978)">
    <path style="stroke: none; stroke-width: 1; stroke-dasharray: none; stroke-linecap: butt; stroke-dashoffset: 0; stroke-linejoin: miter; stroke-miterlimit: 4; fill: rgb(40,126,183); fill-rule: nonzero; opacity: 1;" vector-effect="non-scaling-stroke" transform=" translate(-436.98, -233.79)" d="M 468.41 224.1 C 466.26000000000005 232.13 463.56 239.94 460.35 247.49 C 442.1 245.8 423.83000000000004 244.39000000000001 405.55 243.27 C 409.94 235.98000000000002 413.6 228.21 416.46000000000004 220.08 C 433.79 221.18 451.11 222.52 468.41 224.10000000000002 Z" stroke-linecap="round"/>
  </g>
  <text style="fill: rgb(255, 255, 255); font-family: Arial, sans-serif; font-size: 76px; font-weight: 700; text-transform: uppercase; white-space: pre; text-decoration: underline overline solid rgba(255, 255, 255, 0.9);" x="132.233" y="555.303">FOR SALE | BUY NOW</text>
</svg>