<?xml version="1.0" encoding="UTF-8"?>
<svg xmlns="http://www.w3.org/2000/svg" xmlns:xlink="http://www.w3.org/1999/xlink" version="1.1" width="100%" height="100%" viewBox="49 64 70 24">
  <path d="M94.4507795,49 L94.6104122,49.1336005 C94.9641832,49.4455633 95.7962655,50.2721952 95.9656273,51.2760766 C96.0967944,52.1105303 96.0967944,52.9601682 95.9656273,53.7946219 C96.2764079,53.5252668 96.5420461,53.2084361 96.7525612,52.8560336 C96.9193303,52.4047399 97.0418735,51.9384973 97.1184855,51.4637943 C97.6751579,52.1825116 98.0381047,53.0305281 98.172977,53.9275886 C98.2335064,54.8715152 98.1526186,55.8191428 97.9329621,56.7394427 C98.2954302,56.3575085 98.6208271,55.9424289 98.9048255,55.499724 C99.1882245,54.8928361 99.4390832,54.2714546 99.6563474,53.6381905 C100.182511,54.5658701 100.539503,55.5787103 100.710839,56.6299407 C100.772925,57.6202403 100.725424,58.6143218 100.569191,59.5943155 L101.312841,58.8375536 C101.500115,58.6426957 101.670435,58.460418 101.749592,58.3624183 C102.08452,57.8013605 102.386678,57.2216055 102.654566,56.62603 C103.111481,57.7248453 103.410818,58.8820135 103.543801,60.0636096 C103.577196,61.1866033 103.39973,62.3059477 103.02049,63.3643118 C103.671928,63.0442574 104.298022,62.6755877 104.893393,62.2614706 C105.452661,61.7063911 105.978212,61.1187355 106.467261,60.5016175 C106.617058,61.5951273 106.668413,62.6997392 106.620713,63.8023197 C106.466882,64.9195844 106.109551,65.9996476 105.566221,66.9896091 C106.200395,66.8261313 106.823354,66.6223513 107.431255,66.3795267 C108.052932,66.1096826 109.398589,65.3275257 109.398589,65.3275257 L109.39941,65.6062482 C109.3914,66.2160946 109.317273,67.6805144 108.812324,68.5109044 C108.3849,69.2053402 107.894994,69.859818 107.348627,70.4662967 C107.831783,70.4456727 108.312944,70.3920993 108.788716,70.3059545 C109.41035,70.1058767 109.998984,69.8159815 110.535709,69.4455819 C110.409456,70.454176 110.133663,71.4386344 109.717298,72.366938 C109.183362,73.2521589 108.562593,74.0826856 107.864068,74.8463754 C108.336613,74.9420617 108.817994,74.9879414 109.300223,74.9832529 C109.879183,74.9206425 110.448517,74.7893483 110.996065,74.5921744 C110.816206,75.3865967 110.48207,76.1384886 110.012398,76.8056785 C109.487059,77.3424641 108.889593,77.803716 108.237385,78.1765496 L107.954566,78.3308845 L109.461544,78.448208 C109.976656,78.4490218 110.491043,78.4097944 111,78.3308845 C110.810604,79.3750817 110.279445,80.3278403 109.489087,81.0410582 C108.674167,81.701017 107.739071,82.1989204 106.734818,82.5076024 C107.212627,82.7290294 107.71425,82.8956593 108.229993,83.0042721 C108.699662,83.0796826 109.17465,83.1176079 109.650408,83.1176848 C109.401527,83.8651548 108.899532,84.5036979 108.229993,84.9244673 C107.686348,85.299288 107.057754,85.5344196 106.400371,85.6088546 C106.70435,85.7481018 107.026026,85.8454662 107.356496,85.8982527 L107.553206,85.9093351 C107.976086,85.9241117 108.536897,85.8982527 108.536897,85.8982527 L108.242327,86.2361587 C107.646975,86.8906223 106.207334,88.3356195 104.460579,89.1207392 C102.669997,89.9255579 100.587545,89.9520633 99.7464143,89.9237345 C99.8771643,90.1364669 99.9987343,90.3539518 100.112769,90.575551 C100.392655,91.3364885 100.583342,92.1264898 100.681368,92.9299026 L100.722643,93.3326542 L100.722643,101.330209 C100.537007,101.878837 100.18688,102.357852 99.7193022,102.702894 C99.317232,102.932383 98.8549713,103.032154 98.3959745,102.990921 L98.2241277,102.968827 C97.7694527,102.950079 97.3303045,102.799146 96.9610987,102.53473 C96.6326311,102.201371 96.3967441,101.789053 96.2764662,101.33803 L96.2764662,94.9908269 C96.2904653,94.2593925 96.1800528,93.5308626 95.9498886,92.8359845 C95.6355476,92.2302454 95.2527222,91.6621173 94.8088344,91.1426148 L84.5,77.8459472 L84.5,77.8263933 L84.5,77.8185717 L74.1911656,91.1347932 C73.7468742,91.6548274 73.3628002,92.2228498 73.0461767,92.828163 C72.8490821,93.4238174 72.7398105,94.0441299 72.7212857,94.6698083 L72.7195991,94.9830053 L72.7195991,101.33803 C72.5982888,101.789778 72.3625887,102.203116 72.0349666,102.538641 C71.718891,102.763123 71.3522992,102.905015 70.9688474,102.952819 L70.7758723,102.968827 C70.2602648,103.055016 69.7305381,102.961046 69.2767632,102.702894 C68.8077269,102.358427 68.4561813,101.879351 68.2694878,101.330209 L68.2694878,93.3287434 C68.3497641,92.3857575 68.5548237,91.4574141 68.8793615,90.5677295 C68.9940416,90.3448765 69.1163422,90.1261845 69.2460137,89.9120237 L68.9992053,89.9176162 C68.0445515,89.9293935 66.1729152,89.8419681 64.5394209,89.1090068 C62.2297699,88.0726489 60.4631032,85.8865203 60.4631032,85.8865203 L60.8969005,85.8997192 C61.1398664,85.9041188 61.4349666,85.9041188 61.6435041,85.8865203 C61.9739736,85.8337338 62.2956497,85.7363695 62.5996288,85.5971223 C62.0249964,85.533988 61.4724561,85.3458941 60.9808075,85.0473851 L60.7739421,84.912735 C60.1034207,84.493865 59.5999824,83.8566379 59.3495917,83.1098633 C59.8254052,83.1073572 60.3003046,83.0681315 60.7700074,82.9925397 C61.2865503,82.8840542 61.7893462,82.7187846 62.2691166,82.4997809 C61.2646781,82.1896484 60.3296114,81.6904329 59.5148478,81.0293258 C58.723417,80.321213 58.1906503,79.3721805 58,78.3308845 C58.5076504,78.4096705 59.0207199,78.4488978 59.5345212,78.448208 L61.0414996,78.3308845 C60.2793184,77.9329033 59.5848832,77.418208 58.9836674,76.8056785 C58.5131061,76.1389869 58.1788896,75.3869142 58,74.5921744 C58.5476974,74.7888475 59.1169704,74.9201276 59.6958426,74.9832529 C60.1781774,74.9904789 60.6598331,74.9445731 61.131997,74.8463754 C60.4346121,74.0841007 59.8151389,73.2548535 59.2827023,72.3708488 C58.8643255,71.4429925 58.5871757,70.4584274 58.4603563,69.4494927 C58.998059,69.8172678 59.5864911,70.1057461 60.2073497,70.3059545 C60.6831213,70.3920993 61.1642826,70.4456727 61.6474388,70.4662967 C61.1010709,69.859818 60.6111655,69.2053402 60.1837416,68.5109044 C59.5345212,67.4510817 59.6132146,65.3353473 59.6132146,65.3353473 L60.3652283,65.7606451 C60.7798441,65.9904037 61.2716778,66.2543816 61.5805494,66.3912591 C62.1835526,66.6295916 62.8012384,66.8294474 63.4298441,66.9896091 C62.8846748,66.002585 62.5246948,64.9252253 62.3674833,63.8101413 C62.3201355,62.7074421 62.3728105,61.6027451 62.5248701,60.5094391 C63.0147064,61.1259014 63.5402171,61.7135121 64.0987379,62.2692921 C64.6943471,62.6841922 65.320401,63.0541455 65.9716407,63.3760442 C65.5950502,62.3170116 65.4176617,61.198162 65.4483296,60.075342 C65.5834856,58.8924586 65.8841098,57.7341178 66.3414996,56.6338515 C66.6139619,57.234407 66.9200333,57.8193325 67.2582777,58.385883 L67.3650735,58.5093199 C67.6942908,58.8748664 68.4386785,59.6177802 68.4386785,59.6177802 C68.282545,58.6377653 68.2363576,57.643551 68.3009651,56.6534055 C68.4719432,55.6033193 68.8289709,54.5917023 69.3554566,53.665566 C69.5708801,54.2989552 69.8204365,54.9203646 70.1030438,55.5270995 C70.3858443,55.9640531 70.7088692,56.3739388 71.0679496,56.7514768 L71.0788419,56.7629074 C70.8576757,55.8388513 70.7754667,54.887326 70.8348924,53.9393209 C70.9707711,53.0425433 71.3336144,52.1947685 71.8893838,51.4755266 C71.966147,51.9489239 72.0886896,52.4138546 72.2553081,52.8638552 C72.4668975,53.2155017 72.7324032,53.5321745 73.042242,53.8024435 C72.9119599,52.9679217 72.9119599,52.1184199 73.042242,51.2838982 C73.2468448,49.9855177 74.5649592,49 74.5649592,49 L74.5562492,49.6109077 C74.5531795,50.1340871 74.5594149,50.8940641 74.6082405,51.4833482 C74.6734159,51.9118728 74.7722091,52.3340875 74.9034553,52.746189 C74.895399,52.3940179 74.9575404,52.0418933 75.0882702,51.7101737 C75.4541945,50.8615335 78.2084633,49.3910785 78.2084633,49.3910785 L76.9572551,52.3103072 C75.8766005,54.8535292 74.2781659,58.6679178 72.91159,62.1408077 L72.0839285,64.2765843 C70.9937987,67.1977136 67.1821042,78.2571947 70.6066815,81.6237651 C74.5649592,85.5149958 74.0062361,78.303509 73.9,77.7794638 C73.7803608,77.3021668 73.6332239,76.8320977 73.459317,76.3715814 C74.3076894,76.2380877 75.1757689,76.305076 75.9932442,76.5671206 C76.7295436,76.8571113 77.3590485,77.3605197 77.8013668,78.0095334 L77.9172977,78.1900962 L81.4191537,73.4697792 L79.6210097,69.9813594 L79.747071,60.3077379 C79.7586169,59.6331169 79.7682829,59.206018 79.7744618,59.1875939 C79.8548668,58.9530421 79.9700219,58.7321068 80.1158371,58.5319719 L80.2308834,58.385883 C80.4013451,58.1459217 80.6685557,57.991709 80.962732,57.9635183 L84.0396437,67.2594533 C83.4110946,67.3855389 82.9870671,67.9725023 83.0677803,68.6047632 C83.142539,69.5545737 84.0711582,69.6583759 84.3918951,69.6657532 L84.60781,69.662341 C84.9277112,69.6505543 85.8542106,69.5467522 85.9322197,68.5969416 C86.0078883,68.004197 85.6399372,67.4512647 85.0757393,67.2805722 L84.9603563,67.2516317 L88.0333333,57.9596075 C88.3292719,57.9886531 88.597848,58.1442525 88.7691166,58.385883 C88.969357,58.6260064 89.1240118,58.9003099 89.2255382,59.1954154 L89.2335849,59.3698845 C89.2552274,60.119095 89.2956774,63.1365523 89.3284293,65.7643886 L89.3789903,69.9891809 L87.5769117,73.4776008 L91.0905716,78.194007 C91.5369148,77.458527 92.2144524,76.8895519 93.0185598,76.5749422 C93.8346883,76.3129355 94.7014842,76.2459422 95.5485523,76.379403 C95.3770418,76.8390335 95.2312364,77.3077397 95.111804,77.7833746 L95.0908236,77.9247322 C94.9548311,79.0581104 94.6605931,85.3087812 98.4011878,81.6315867 C102.355531,77.7442668 96.6423905,63.5676726 96.6423905,63.5676726 L96.2017386,62.4341351 C93.8713714,56.4927796 90.7915367,49.4145432 90.7915367,49.4145432 L91.2275473,49.6575618 C92.0191537,50.1109072 93.6363029,51.0971582 93.9077951,51.7336384 C94.0429727,52.073221 94.1053858,52.4346469 94.0938169,52.7952406 C94.2317013,52.3675867 94.3358018,51.9288777 94.4035635,51.4833482 L94.4311701,51.0531197 C94.4771922,50.1084327 94.4507795,49 94.4507795,49 Z M84.5,80.880716 C84.6012887,80.8868686 84.6962286,80.9284209 84.7687611,80.9967028 L84.8187082,81.0527906 L84.940683,83.6339084 L84.9186734,83.6889038 C84.8747773,83.7878955 84.7655902,83.985879 84.5944321,83.985879 C84.4232739,83.985879 84.3008073,83.8142933 84.2502714,83.7285005 L84.2245731,83.6808378 L84.2245731,81.0762553 C84.2710972,80.964002 84.3780771,80.8880517 84.5,80.880716 Z M85.4325167,80.9041807 C85.5334095,80.8988194 85.6323289,80.9277782 85.7135482,80.9850592 L85.7708983,81.0332366 L86.1643653,83.3288672 L86.1468437,83.380624 C86.1112472,83.4742995 86.0197661,83.664217 85.857461,83.6847486 C85.7222068,83.7018583 85.6023223,83.6074495 85.5314291,83.5342368 L85.4639941,83.4540123 L85.1767632,81.1075415 C85.2177693,80.9980705 85.3160621,80.9199137 85.4325167,80.9041807 Z M83.5163326,80.90027 C83.6103749,80.9252448 83.6928917,80.9799925 83.7520015,81.0552342 L83.7917595,81.1153631 L83.4533779,83.4188152 L83.4012071,83.4931201 C83.3344634,83.5765502 83.2094284,83.6964809 83.0599109,83.6651947 C82.8917038,83.6299976 82.8009605,83.4540123 82.7661018,83.3682195 L82.749072,83.3210456 L83.213363,81.0175935 C83.2708144,80.944617 83.3566598,80.901228 83.4475674,80.8964617 L83.5163326,80.90027 Z M82.6467706,80.7594817 C82.7122975,80.7888221 82.7652543,80.8389732 82.7980444,80.9010417 L82.8238307,80.9667533 L82.2533036,82.9221456 L82.2277898,82.9585648 C82.1785449,83.0230927 82.0634558,83.1470157 81.9306607,83.1059525 C81.7978656,83.0648892 81.7646669,82.9094355 81.7563672,82.8342752 L81.7536006,82.7930897 L82.4106904,80.8376974 C82.4570009,80.7834976 82.5244924,80.7533656 82.5942874,80.7535541 L82.6467706,80.7594817 Z M86.321752,80.7594817 C86.3895947,80.7447594 86.4597578,80.7522957 86.5220918,80.7799507 L86.5814402,80.8142327 L87.214922,82.7383387 L87.2112333,82.7842293 C87.2016425,82.867639 87.167706,83.0384914 87.0496659,83.0707554 C86.9512992,83.0976421 86.8498585,83.0298144 86.7876108,82.9751627 L86.727023,82.914324 L86.1722346,80.9589317 C86.1786698,80.869154 86.2370405,80.7912899 86.321752,80.7594817 Z" id="Shape" fill="#575D6A" fill-rule="nonzero" ></path>
</svg>
