<?xml version="1.0" encoding="UTF-8"?>
<svg xmlns="http://www.w3.org/2000/svg" xmlns:xlink="http://www.w3.org/1999/xlink" version="1.1" width="100%" height="100%" viewBox="49 64 70 24">
  <path d="M115.999922,67.746595 C116.003457,69.4358139 115.886777,71.123125 115.650697,72.7955834 C115.297396,74.6262596 113.622337,76.9752095 113.622337,76.9752095 C112.040823,78.7761086 110.269477,80.3989596 108.339458,81.8152166 L100.02651,88.0303208 C98.991164,87.2480321 97.5662612,87.2480321 96.5309152,88.0303208 C94.6979101,89.3719808 95.4211366,91.2235551 95.8866617,91.5537456 C96.3521868,91.8839361 97.860987,91.7125714 97.860987,91.7125714 L97.8152657,92.6028318 C97.1805576,92.8370495 96.499493,92.9158511 95.8284711,92.8327112 C95.0636798,92.7365798 94.4318957,91.8170621 94.4318957,91.8170621 L93.5382538,90.7094611 C92.1863249,92.1066598 90.775535,93.4442332 89.3099036,94.7185657 C91.9060534,96.9529164 94.8510337,99.7758386 95.140273,100.053732 L95.1634352,100.076003 L97.5575643,99.8753813 C97.5944194,100.011407 97.6056965,100.153156 97.5908161,100.293344 C97.5534079,100.468888 95.9781041,102.521085 95.9781041,102.521085 C96.1034447,102.992628 95.9968365,103.496011 95.6913074,103.875284 C95.3937505,104.212019 94.9517883,104.381991 94.5067123,104.330863 C93.9593586,104.911421 93.3792661,105.459857 92.769306,105.973456 C92.6327981,106.007277 92.4901665,106.007277 92.3536586,105.973456 L92.3536586,105.973456 L92.0918007,103.699739 C92.0918007,103.699739 88.0932363,101.122801 84.5016882,98.5194537 C80.9074925,101.122332 76.9082004,103.699739 76.9082004,103.699739 L76.6463425,105.973456 C76.5100286,106.008848 76.367009,106.008848 76.2306951,105.973456 C75.6194697,105.459802 75.0379969,104.911373 74.4891324,104.330863 C74.0441471,104.381272 73.6025038,104.211422 73.3045372,103.875284 C73.0008758,103.495117 72.8944679,102.992679 73.0177405,102.521085 C73.0177405,102.521085 71.4424368,100.468888 71.4050285,100.293344 C71.3928023,100.152895 71.4054682,100.011378 71.4424368,99.8753813 L73.8365659,100.076003 L73.8597094,100.053732 C74.1488277,99.7757316 77.0936237,96.9507423 79.690864,94.7148122 C78.2250904,93.4428736 76.815879,92.1061459 75.4659038,90.7094611 L75.4659038,90.7094611 L74.5722619,91.8170621 C74.5722619,91.8170621 73.9363213,92.7365798 73.1756865,92.8327112 C72.5046646,92.9158511 71.8236,92.8370495 71.1888919,92.6028318 L71.1888919,92.6028318 L71.1390142,91.7125714 C71.1390142,91.7125714 72.6519708,91.8839361 73.1174959,91.5537456 C73.583021,91.2235551 74.3062475,89.3719808 72.4690859,88.0303208 C71.4345857,87.2501239 70.0121478,87.2501239 68.9776476,88.0303208 L68.9776476,88.0303208 L60.6646991,81.8152166 C58.734014,80.3982301 56.9613652,78.7754619 55.3776639,76.9752095 C55.3776639,76.9752095 53.7026048,74.6262596 53.3534609,72.7955834 C53.1145858,71.123376 52.9965099,69.4359625 53.0000785,67.746595 L53.0000785,67.746595 L57.1441654,71.7381379 C57.1441654,71.7381379 64.7962345,77.3639148 69.1979407,80.2269587 C71.8301153,81.9329045 74.3172606,83.8551368 76.6338731,85.9739447 C76.6338731,85.9739447 78.5333818,85.0753251 78.8783692,84.4985366 C79.2233565,83.9217482 78.7536749,83.0565656 78.7536749,83.0565656 L78.7536749,83.0565656 L79.314799,82.9604342 C79.314799,82.9604342 80.2500057,84.0011611 80.2832575,84.7576735 C80.3165093,85.5141858 79.3272684,86.2247222 79.3272684,86.2247222 L79.3272684,86.2247222 L78.3047757,87.2487307 C78.3047757,87.2487307 81.6177614,89.2064996 84.4983016,91.1059121 C87.3799438,89.2064996 90.6952254,87.2487307 90.6952254,87.2487307 L89.6685763,86.2289019 C89.6685763,86.2289019 88.6793354,85.5183654 88.7084307,84.7618531 C88.737526,84.0053408 89.6768892,82.9646138 89.6768892,82.9646138 L90.2421697,83.0607452 C90.2421697,83.0607452 89.7683316,83.9259279 90.113319,84.5027163 C90.4583064,85.0795047 92.3702845,85.9948428 92.3702845,85.9948428 C94.685914,83.8766311 97.1716282,81.9544304 99.8020604,80.2478568 C104.203767,77.3848129 111.855836,71.7590361 111.855836,71.7590361 L115.999922,67.746595 Z M84.6184601,46 L88.6502401,58.4761841 L102.108904,58.4761841 L91.2314106,65.7696318 L95.3380071,78.8184247 L84.6184601,70.6347166 C84.6184601,70.6347166 73.661994,78.4924138 73.4209185,78.8184247 L73.4209185,78.8184247 L77.8683459,66.158337 L66.7331515,58.4761841 L80.1086855,58.4761841 L84.6184601,46 Z" fill="#B3291E"></path>
</svg>
