<?xml version="1.0" encoding="UTF-8"?><svg id="Layer_2" xmlns="http://www.w3.org/2000/svg" xmlns:xlink="http://www.w3.org/1999/xlink" viewBox="0 0 592.94 356"><defs><style>.cls-1{fill:url(#linear-gradient-2);}.cls-2{fill:#fff;}.cls-3{fill:#287eb7;}.cls-4{fill:#b52f28;}.cls-5{fill:url(#linear-gradient-3);}.cls-6{fill:url(#linear-gradient);}.cls-7{fill:url(#linear-gradient-4);}</style><linearGradient id="linear-gradient" x1="119.79" y1="93.99" x2="348.53" y2="366.59" gradientTransform="matrix(1, 0, 0, 1, 0, 0)" gradientUnits="userSpaceOnUse"><stop offset="0" stop-color="#c0382c"/><stop offset="1" stop-color="#e74b3c"/></linearGradient><linearGradient id="linear-gradient-2" x1="309.48" y1="168.04" x2="433.24" y2="64.19" gradientTransform="matrix(1, 0, 0, 1, 0, 0)" gradientUnits="userSpaceOnUse"><stop offset="0" stop-color="#3196da"/><stop offset="1" stop-color="#53bdf9"/></linearGradient><linearGradient id="linear-gradient-3" x1="278.09" y1="254.46" x2="278.09" y2="224.46" xlink:href="#linear-gradient-2"/><linearGradient id="linear-gradient-4" x1="314.85" y1="254.46" x2="314.85" y2="224.46" xlink:href="#linear-gradient-2"/></defs><g id="Logo"><g><path class="cls-3" d="M592.94,239.61c-20.87-2.14-48.99-2.52-81.02,4.39-15.18,3.28-28.6,7.63-40.11,12.18,4.12-9.2,7.51-18.72,10.12-28.46l.61-2.27c36.9,3.63,73.72,8.35,110.4,14.16Z"/><path class="cls-3" d="M0,239.61c20.87-2.14,48.99-2.52,81.02,4.39,15.18,3.28,28.6,7.63,40.11,12.18-4.12-9.2-7.51-18.72-10.12-28.46l-.61-2.27c-36.9,3.63-73.72,8.35-110.4,14.16Z"/><path class="cls-6" d="M379.04,274.61c-22.23,19.03-51.08,30.53-82.56,30.53-10.66,0-21.02-1.32-30.91-3.8l-26.06,23.67-3.31-35.09c-27.64-14.94-49.16-39.83-59.7-69.84-17.33,1.1-34.65,2.44-51.96,4.02,20.35,75.88,89.72,131.9,171.94,131.9,45.18,0,86.47-16.91,117.89-44.74l-35.33-36.65ZM194.19,32.4c-26.19,18.44-47.2,43.77-60.38,73.34,20.42-1.82,40.87-3.29,61.32-4.42,7.52-9.92,16.46-18.71,26.52-26.05l-27.46-42.87Z"/><path class="cls-1" d="M416.46,220.08c-5.78,16.45-14.85,31.36-26.44,43.94l35.33,36.64c20.22-21.24,35.26-47.43,43.06-76.56-17.3-1.58-34.62-2.92-51.95-4.02ZM296.48,0c-32.59,0-63.16,8.8-89.45,24.15l27.45,42.87c18.35-10.29,39.5-16.16,62-16.16,41.32,0,78.11,19.82,101.35,50.46h.01c20.45,1.13,40.89,2.6,61.31,4.42C431.39,43.49,368.92,0,296.48,0Z"/><g><path class="cls-5" d="M269.26,254.46c-1.69,0-3.15-.6-4.35-1.81s-1.81-2.66-1.81-4.35v-17.67c0-1.69,.6-3.15,1.81-4.35s2.66-1.81,4.35-1.81h17.62c1.69,0,3.15,.6,4.38,1.81,1.22,1.21,1.83,2.66,1.83,4.35v2.83h-6.54v-2.5h-16.03c-.54,0-.97,.43-.97,.97v15.06c0,.54,.43,.97,.97,.97h15.06c.54,0,.97-.43,.97-.97v-3.53h-6.5v-6.5h13.04v11.33c0,1.69-.61,3.15-1.83,4.35-1.22,1.21-2.68,1.81-4.38,1.81h-17.62Z"/><path class="cls-7" d="M306.01,254.46c-1.69,0-3.15-.6-4.35-1.81s-1.81-2.66-1.81-4.35v-17.67c0-1.69,.6-3.15,1.81-4.35s2.66-1.81,4.35-1.81h17.62c1.69,0,3.15,.6,4.38,1.81,1.22,1.21,1.83,2.66,1.83,4.35v2.83h-6.54v-2.5h-16.03c-.54,0-.97,.43-.97,.97v15.06c0,.54,.43,.97,.97,.97h15.06c.54,0,.97-.43,.97-.97v-3.53h-6.5v-6.5h13.04v11.33c0,1.69-.61,3.15-1.83,4.35-1.22,1.21-2.68,1.81-4.38,1.81h-17.62Z"/></g><g><path class="cls-2" d="M449.92,187.99c-.94-23.09-1.89-46.17-2.83-69.26-6.4-.52-12.8-1.02-19.2-1.47,.99,27.68,1.97,55.35,2.96,83.03,2.92,2.84,4.55,4.44,7.48,7.29,22.66,1.71,45.3,3.83,67.91,6.35-.34-6.14-.68-12.28-1.02-18.42-17.61-1.97-35.25-3.69-52.9-5.16-.93-.92-1.46-1.44-2.39-2.35Z"/><path class="cls-2" d="M229.9,113.76c-.42,23.06-.83,46.11-1.25,69.17-.92,.88-1.43,1.37-2.35,2.25-10.38,.39-20.76,.86-31.14,1.42-.88-.79-1.37-1.24-2.25-2.04,.64-23.07,1.27-46.13,1.91-69.2-6.41,.35-12.82,.74-19.22,1.16-.91,27.67-1.82,55.34-2.72,83.01,2.74,2.46,4.27,3.84,7.02,6.3,20.27-1.25,40.55-2.18,60.84-2.78,2.87-2.72,4.47-4.25,7.33-6.95,.36-27.65,.71-55.29,1.07-82.94-6.41,.17-12.83,.36-19.24,.59Z"/><path class="cls-2" d="M417.96,134.92c-.2-6.13-.4-12.26-.6-18.39-22.14-1.45-44.29-2.51-66.46-3.16-2.72,2.55-4.25,3.99-6.99,6.56,.36,27.65,.71,55.29,1.07,82.94,6.57,.17,13.14,.37,19.71,.61-.21-11.89-.43-23.78-.65-35.67,14.16,.51,28.32,1.18,42.47,2.02-.18-6.13-.36-12.26-.54-18.38-14.08-.83-28.17-1.5-42.26-2.01-.09-5.04-.18-10.09-.27-15.13,.87-.81,1.36-1.27,2.24-2.08,17.44,.65,34.87,1.55,52.29,2.7Z"/><path class="cls-2" d="M586.26,153.73c-.48-6.16-.96-12.32-1.44-18.48-21.97-3.48-43.98-6.56-66.03-9.24-2.59,2.31-4.04,3.61-6.64,5.93,1.49,25.48,2.97,50.95,4.46,76.43,2.97,2.97,4.63,4.65,7.6,7.64,22.59,2.74,45.14,5.9,67.64,9.46-.48-6.16-.96-12.32-1.44-18.48-17.53-2.78-35.09-5.3-52.68-7.58-.95-.96-1.48-1.5-2.43-2.47-.32-5.06-.64-10.12-.96-15.19,14.08,1.81,28.15,3.77,42.2,5.9-.46-6.16-.92-12.31-1.38-18.47-13.98-2.12-27.98-4.07-41.99-5.87-.32-5.06-.64-10.12-.96-15.19,.83-.73,1.3-1.14,2.12-1.88,17.34,2.25,34.65,4.74,51.94,7.47Z"/><path class="cls-2" d="M7.64,141.69c-1.07,13.71-2.14,27.42-3.2,41.13,2.57,2.22,4.01,3.46,6.59,5.68,15.09-2.33,30.2-4.47,45.32-6.43,.84,.73,1.31,1.14,2.15,1.88-.28,4.34-.55,8.68-.83,13.02-.95,.96-1.48,1.5-2.43,2.47-10.32,1.34-20.64,2.76-30.94,4.27-.83-.71-1.3-1.12-2.13-1.84,.16-2.17,.32-4.34,.47-6.52-6.47,.96-12.94,1.95-19.41,2.97-.54,6.92-1.08,13.83-1.62,20.75,2.46,2.09,3.83,3.27,6.3,5.37,20.37-3.15,40.78-5.97,61.22-8.44,2.81-2.83,4.39-4.42,7.2-7.23,.8-13.67,1.59-27.34,2.39-41.02-2.63-2.32-4.1-3.62-6.71-5.93-15.06,1.83-30.11,3.85-45.14,6.05-.82-.72-1.29-1.12-2.11-1.84,.32-4.35,.63-8.69,.95-13.03,.94-.98,1.47-1.53,2.42-2.5,10.16-1.49,20.33-2.89,30.5-4.21,.83,.73,1.29,1.14,2.12,1.88-.14,2.17-.28,4.34-.41,6.51,6.42-.82,12.85-1.61,19.28-2.37,.4-6.9,.8-13.79,1.21-20.69-2.46-2.2-3.84-3.43-6.29-5.62-19.96,2.42-39.88,5.17-59.77,8.24-2.78,2.91-4.35,4.55-7.14,7.47Z"/><path class="cls-2" d="M333.46,131.3c-.06-6.12-.12-12.25-.18-18.37-22.17-.44-44.34-.49-66.51-.13-2.79,2.68-4.35,4.19-7.14,6.88-.28,27.64-.55,55.29-.83,82.93,6.57-.13,13.14-.23,19.71-.29,.06-11.89,.11-23.77,.17-35.65,14.17-.13,28.34-.11,42.51,.08-.04-6.12-.08-12.25-.12-18.37-14.1-.19-28.2-.21-42.3-.08,.02-5.04,.05-10.08,.07-15.13,.89-.85,1.39-1.33,2.29-2.18,17.45-.14,34.89-.04,52.34,.31Z"/><path class="cls-2" d="M145.87,118.73c-.46,11.18-.91,22.37-1.37,33.55-.92,.92-1.44,1.44-2.37,2.35-11.02,.92-22.04,1.93-33.05,3.05,.6-11.92,1.2-23.83,1.8-35.74-6.39,.65-12.78,1.33-19.17,2.04-1.66,29.98-3.33,59.97-4.99,89.95,6.54-.73,13.09-1.43,19.63-2.09,.56-11.19,1.13-22.38,1.69-33.58,.94-.94,1.46-1.46,2.4-2.4,11.06-1.11,22.13-2.11,33.21-3.02-.49,11.9-.97,23.81-1.46,35.71,6.56-.54,13.11-1.04,19.67-1.51,1.07-29.93,2.13-59.86,3.2-89.79-6.4,.46-12.81,.95-19.2,1.47Z"/></g><path class="cls-4" d="M187.41,243.27c-18.28,1.12-36.55,2.53-54.79,4.22-3.22-7.54-5.92-15.36-8.08-23.39,17.31-1.58,34.63-2.92,51.96-4.02,2.86,8.14,6.52,15.9,10.91,23.19Z"/><path class="cls-3" d="M468.41,224.1c-2.15,8.03-4.85,15.84-8.06,23.39-18.25-1.69-36.52-3.1-54.8-4.22,4.39-7.29,8.05-15.06,10.91-23.19,17.33,1.1,34.65,2.44,51.95,4.02Z"/></g></g></svg>