<svg id="splitsvg" version="1.1" xmlns="http://www.w3.org/2000/svg" xmlns:xlink="http://www.w3.org/1999/xlink" width="1380" height="386"><g id="svgg"><path id="path0" d="M241.500 0.266 C 241.500 0.413,241.394 0.769,241.264 1.058 C 241.134 1.347,240.752 2.296,240.415 3.167 C 240.078 4.037,239.622 5.146,239.401 5.630 C 239.180 6.114,239.000 6.579,239.000 6.664 C 239.000 6.790,237.969 9.434,237.325 10.958 C 237.069 11.564,236.919 11.945,235.831 14.750 C 235.261 16.217,234.696 17.642,234.575 17.917 C 234.453 18.192,233.902 19.599,233.350 21.044 C 232.798 22.490,232.236 23.915,232.101 24.211 C 231.967 24.507,231.436 25.837,230.923 27.167 C 230.409 28.496,229.916 29.752,229.828 29.958 C 229.608 30.471,229.497 30.751,228.498 33.333 C 228.020 34.571,227.532 35.808,227.415 36.083 C 227.298 36.358,227.145 36.733,227.076 36.917 C 226.258 39.069,225.400 41.250,225.011 42.167 C 224.702 42.895,224.467 43.496,224.425 43.667 C 224.380 43.849,221.968 49.965,221.665 50.667 C 221.486 51.079,220.624 53.254,219.750 55.500 C 218.875 57.746,217.944 60.108,217.681 60.750 C 216.986 62.447,216.120 64.638,215.242 66.917 C 214.818 68.017,214.334 69.254,214.166 69.667 C 213.998 70.079,213.598 71.092,213.278 71.917 C 212.957 72.742,212.601 73.642,212.486 73.917 C 212.372 74.192,212.270 74.454,212.260 74.500 C 212.250 74.546,211.780 75.746,211.216 77.167 C 208.555 83.868,205.931 90.516,205.574 91.462 C 205.357 92.037,205.074 92.749,204.945 93.045 C 204.817 93.341,204.580 93.921,204.419 94.333 C 204.258 94.746,204.062 95.233,203.982 95.417 C 203.903 95.600,203.507 96.612,203.103 97.667 C 202.031 100.464,199.542 106.796,199.172 107.667 C 198.997 108.079,198.654 108.942,198.410 109.583 C 198.166 110.225,197.869 110.975,197.752 111.250 C 196.786 113.504,195.862 116.081,195.991 116.161 C 196.077 116.214,196.433 116.496,196.782 116.788 C 197.131 117.080,198.092 117.858,198.917 118.516 C 199.742 119.175,200.679 119.928,201.000 120.189 C 201.321 120.451,202.821 121.645,204.333 122.843 C 205.846 124.041,207.721 125.537,208.500 126.167 C 209.279 126.798,212.279 129.199,215.167 131.503 C 218.054 133.808,220.679 135.905,221.000 136.164 C 222.126 137.074,233.606 146.258,234.362 146.854 C 234.667 147.094,236.904 148.883,239.333 150.828 C 241.762 152.773,244.012 154.574,244.333 154.830 C 244.654 155.086,246.095 156.241,247.534 157.397 L 250.152 159.500 304.056 159.500 L 357.960 159.500 358.823 157.292 C 359.298 156.077,359.758 154.953,359.844 154.794 C 359.930 154.635,360.000 154.425,360.000 154.327 C 360.000 154.230,360.288 153.460,360.641 152.617 C 360.993 151.773,361.522 150.446,361.817 149.667 C 362.112 148.887,362.508 147.875,362.698 147.417 C 363.172 146.273,363.215 146.163,364.002 144.083 C 364.383 143.075,365.184 141.012,365.781 139.500 C 367.042 136.307,367.623 134.826,368.920 131.500 C 369.439 130.171,369.960 128.858,370.078 128.583 C 370.196 128.308,370.480 127.596,370.708 127.000 C 371.185 125.753,373.125 120.747,373.323 120.250 C 373.396 120.067,373.532 119.729,373.626 119.500 C 373.719 119.271,374.067 118.390,374.398 117.542 C 374.729 116.694,375.271 115.306,375.602 114.458 C 376.264 112.764,376.426 112.351,376.651 111.792 C 376.809 111.397,379.145 105.421,380.088 103.000 C 380.391 102.221,381.134 100.330,381.739 98.798 C 383.074 95.417,384.276 92.317,384.602 91.417 C 384.734 91.050,384.912 90.600,384.997 90.417 C 385.082 90.233,385.645 88.808,386.249 87.250 C 386.852 85.692,387.418 84.248,387.506 84.042 C 387.749 83.475,387.874 83.156,389.089 80.000 C 389.707 78.396,390.308 76.858,390.424 76.583 C 390.541 76.308,390.868 75.468,391.151 74.715 C 391.434 73.963,391.775 73.100,391.909 72.798 C 392.042 72.497,392.412 71.575,392.729 70.750 C 394.220 66.880,394.610 65.879,395.746 63.000 C 398.079 57.089,398.894 54.056,399.687 48.333 C 400.155 44.952,399.956 37.949,399.276 33.917 C 399.078 32.740,398.967 32.181,398.829 31.667 C 398.743 31.346,398.553 30.558,398.407 29.917 C 397.419 25.579,394.651 19.178,392.027 15.167 C 391.365 14.154,388.872 10.691,388.593 10.397 C 388.496 10.294,388.079 9.807,387.667 9.313 C 385.409 6.614,381.197 2.834,378.063 0.696 L 377.043 0.000 309.271 0.000 C 247.279 0.000,241.500 0.023,241.500 0.266 M0.417 1.760 C 1.730 2.931,1.942 3.111,2.295 3.357 C 2.503 3.501,2.954 3.874,3.296 4.185 C 3.638 4.496,4.443 5.178,5.084 5.701 C 5.725 6.224,6.448 6.824,6.690 7.034 C 6.932 7.245,7.449 7.679,7.839 8.000 C 8.229 8.321,9.156 9.098,9.899 9.728 C 10.642 10.357,11.400 10.995,11.583 11.145 C 11.767 11.294,12.408 11.829,13.009 12.333 C 13.610 12.838,14.432 13.512,14.836 13.833 C 15.240 14.154,16.143 14.904,16.844 15.500 C 18.057 16.531,18.918 17.242,20.067 18.164 C 20.351 18.392,21.153 19.067,21.849 19.664 C 22.546 20.261,23.924 21.425,24.911 22.250 C 25.899 23.075,26.842 23.863,27.006 24.000 C 27.171 24.137,27.443 24.363,27.612 24.500 C 28.279 25.043,31.542 27.759,33.833 29.677 C 35.162 30.790,36.775 32.118,37.417 32.629 C 38.058 33.139,38.700 33.676,38.843 33.820 C 38.986 33.965,39.426 34.346,39.821 34.667 C 40.216 34.987,40.624 35.327,40.728 35.421 C 40.832 35.515,41.563 36.134,42.354 36.796 L 43.791 38.000 100.062 38.000 C 153.786 38.000,156.333 38.013,156.333 38.295 C 156.333 40.114,153.519 47.292,151.025 51.833 C 150.113 53.494,147.171 57.829,146.500 58.500 C 146.454 58.546,146.158 58.921,145.841 59.333 C 145.525 59.746,144.874 60.496,144.395 61.000 C 143.917 61.504,143.351 62.109,143.137 62.345 C 142.132 63.455,138.953 66.275,137.417 67.419 C 137.050 67.691,136.712 67.956,136.667 68.006 C 136.594 68.085,135.654 68.708,132.417 70.821 C 131.283 71.561,126.206 74.021,124.667 74.576 C 123.979 74.824,123.267 75.095,123.083 75.179 C 122.900 75.262,121.662 75.716,120.333 76.186 C 117.286 77.265,115.196 78.018,113.917 78.498 C 113.367 78.704,112.317 79.077,111.583 79.327 L 110.250 79.780 108.917 78.859 C 108.183 78.353,106.940 77.477,106.155 76.913 C 105.369 76.349,104.488 75.746,104.196 75.574 C 103.905 75.402,103.667 75.203,103.667 75.131 C 103.667 75.059,103.589 75.000,103.493 75.000 C 103.397 75.000,103.229 74.922,103.118 74.827 C 102.807 74.559,101.139 73.382,98.628 71.656 C 95.831 69.734,95.322 69.379,94.994 69.119 C 94.853 69.008,94.179 68.542,93.496 68.083 C 92.814 67.625,92.109 67.119,91.929 66.958 C 91.750 66.798,91.548 66.667,91.480 66.667 C 91.413 66.667,91.258 66.570,91.137 66.452 C 91.016 66.334,90.651 66.075,90.326 65.876 C 89.244 65.215,88.960 64.895,89.154 64.555 C 89.374 64.171,91.833 58.393,91.833 58.262 C 91.833 58.209,80.977 58.185,67.709 58.208 L 43.585 58.250 43.361 58.917 C 43.238 59.283,43.041 59.921,42.924 60.333 C 42.746 60.961,41.850 63.982,40.726 67.750 C 40.589 68.208,40.410 68.808,40.328 69.083 C 40.246 69.358,39.909 70.483,39.578 71.583 C 39.248 72.683,38.877 73.921,38.754 74.333 C 37.067 79.997,35.828 84.208,35.571 85.147 C 35.437 85.640,35.286 86.108,35.237 86.188 C 35.188 86.267,35.121 86.464,35.089 86.624 C 35.028 86.922,34.089 90.117,33.091 93.417 C 32.786 94.425,32.296 96.075,32.002 97.083 C 31.436 99.029,30.629 101.729,29.837 104.333 C 29.312 106.059,28.587 108.494,27.403 112.500 C 26.983 113.921,26.503 115.533,26.335 116.083 C 25.420 119.086,24.555 122.018,23.680 125.083 C 23.392 126.092,23.047 127.254,22.913 127.667 C 22.509 128.911,21.809 131.231,21.748 131.529 C 21.717 131.682,21.503 132.394,21.274 133.112 C 21.044 133.830,20.515 135.579,20.098 137.000 C 19.681 138.421,18.733 141.608,17.990 144.083 C 17.248 146.558,16.613 148.696,16.579 148.833 C 16.546 148.971,16.359 149.608,16.165 150.250 C 15.610 152.087,15.288 153.181,14.676 155.307 C 14.482 155.980,13.906 157.893,13.394 159.557 C 12.883 161.222,12.427 162.715,12.380 162.875 C 12.299 163.152,13.529 163.167,36.568 163.167 L 60.842 163.167 61.002 162.746 C 61.090 162.514,61.198 162.158,61.242 161.954 C 61.390 161.273,61.772 159.941,63.426 154.333 C 63.954 152.546,64.528 150.558,64.703 149.917 C 65.056 148.624,65.193 148.143,65.559 146.917 C 65.696 146.458,65.998 145.408,66.231 144.583 C 66.464 143.758,66.923 142.183,67.251 141.083 C 67.579 139.983,68.106 138.160,68.422 137.031 C 68.738 135.901,69.304 133.951,69.679 132.697 C 70.055 131.443,70.544 129.779,70.766 129.000 C 70.988 128.221,71.204 127.471,71.245 127.333 C 71.334 127.036,72.060 124.523,72.497 123.000 C 72.668 122.404,72.919 121.542,73.055 121.083 C 73.192 120.625,73.567 119.313,73.888 118.167 C 74.210 117.021,74.974 114.396,75.586 112.333 C 76.198 110.271,76.868 107.941,77.074 107.155 C 77.663 104.915,77.504 104.960,79.509 106.470 C 80.466 107.191,82.262 108.529,83.500 109.443 C 84.737 110.358,86.688 111.800,87.833 112.649 C 88.979 113.498,90.092 114.318,90.307 114.471 C 90.522 114.625,91.459 115.317,92.390 116.010 C 93.321 116.703,95.096 118.021,96.333 118.939 C 98.858 120.812,98.902 120.845,100.847 122.300 C 101.619 122.878,102.428 123.478,102.646 123.633 C 103.811 124.467,105.094 125.418,105.167 125.503 C 105.212 125.556,105.513 125.780,105.833 126.000 C 106.154 126.220,106.802 126.704,107.274 127.075 C 107.745 127.446,108.858 128.275,109.747 128.917 C 110.635 129.558,111.652 130.308,112.006 130.583 C 112.359 130.858,112.972 131.316,113.366 131.601 C 114.104 132.133,117.286 134.477,117.583 134.707 C 118.080 135.092,121.698 137.787,122.004 138.000 C 122.201 138.137,123.214 138.887,124.255 139.667 C 125.295 140.446,126.308 141.196,126.505 141.333 C 126.702 141.471,127.888 142.347,129.140 143.280 C 130.392 144.213,131.867 145.310,132.417 145.718 C 132.967 146.125,135.104 147.712,137.167 149.243 C 139.229 150.774,141.104 152.164,141.333 152.332 C 142.774 153.390,145.532 155.438,146.167 155.921 C 146.579 156.235,147.592 156.980,148.417 157.576 C 149.242 158.173,150.179 158.869,150.500 159.122 L 151.083 159.583 184.667 159.541 L 218.250 159.499 217.807 159.125 C 217.564 158.919,217.200 158.637,217.000 158.500 C 216.800 158.362,216.498 158.137,216.329 158.000 C 216.160 157.862,215.474 157.354,214.803 156.870 C 213.326 155.804,211.419 154.404,210.649 153.822 C 210.338 153.586,209.371 152.874,208.500 152.239 C 207.629 151.604,206.842 151.026,206.750 150.954 C 206.596 150.833,205.276 149.865,204.359 149.200 C 204.144 149.044,203.315 148.429,202.517 147.833 C 201.718 147.237,200.882 146.621,200.657 146.464 C 200.433 146.307,198.960 145.219,197.383 144.047 C 195.806 142.876,194.355 141.804,194.159 141.667 C 193.962 141.529,192.689 140.592,191.330 139.583 C 189.970 138.575,188.697 137.637,188.501 137.500 C 188.304 137.362,187.980 137.124,187.780 136.970 C 187.580 136.816,186.479 136.000,185.333 135.156 C 184.188 134.312,182.938 133.388,182.556 133.103 C 182.175 132.817,181.687 132.457,181.473 132.302 C 181.259 132.148,180.595 131.660,179.998 131.219 C 179.401 130.778,178.238 129.930,177.415 129.336 C 176.591 128.742,175.804 128.164,175.667 128.052 C 175.388 127.825,172.283 125.534,169.161 123.253 C 168.035 122.430,167.023 121.666,166.914 121.557 C 166.805 121.447,166.491 121.221,166.218 121.054 C 165.945 120.887,165.465 120.549,165.152 120.303 C 164.839 120.057,163.833 119.308,162.917 118.639 C 162.000 117.970,161.175 117.365,161.083 117.294 C 160.847 117.110,158.339 115.253,156.667 114.023 C 155.887 113.450,155.134 112.891,154.993 112.782 C 154.851 112.673,154.363 112.323,153.909 112.006 C 153.455 111.688,152.979 111.327,152.852 111.203 C 152.724 111.079,152.424 110.851,152.185 110.697 C 151.946 110.543,151.104 109.929,150.314 109.333 C 149.523 108.737,148.708 108.138,148.501 108.000 C 148.124 107.749,146.399 106.467,146.080 106.200 C 145.986 106.122,145.536 105.801,145.080 105.486 C 144.384 105.007,143.617 104.449,142.750 103.790 C 142.658 103.720,142.370 103.503,142.110 103.308 L 141.637 102.952 143.694 102.055 C 144.825 101.562,145.975 101.053,146.250 100.926 C 146.525 100.798,147.387 100.422,148.167 100.090 C 148.946 99.757,149.846 99.363,150.167 99.212 C 150.487 99.062,150.787 98.927,150.833 98.913 C 150.980 98.867,152.208 98.325,153.667 97.664 C 154.446 97.310,155.462 96.874,155.925 96.693 C 156.387 96.512,157.250 96.140,157.841 95.866 C 160.201 94.771,161.287 94.286,162.073 93.974 C 162.525 93.794,163.275 93.472,163.739 93.259 C 164.204 93.045,165.558 92.445,166.750 91.925 C 167.942 91.404,169.067 90.910,169.250 90.826 C 169.433 90.743,171.533 89.811,173.917 88.756 C 177.618 87.117,178.280 86.770,178.454 86.377 C 178.565 86.124,179.337 84.192,180.167 82.083 C 180.998 79.975,181.747 78.100,181.833 77.917 C 182.070 77.405,185.500 68.673,185.500 68.579 C 185.500 68.534,185.646 68.178,185.824 67.790 C 186.100 67.189,187.022 64.868,189.118 59.500 C 189.495 58.533,189.664 58.122,190.176 56.917 C 190.499 56.156,193.500 48.480,193.500 48.414 C 193.500 48.374,193.725 47.850,194.000 47.250 C 194.275 46.650,194.500 46.102,194.500 46.034 C 194.500 45.965,194.954 44.786,195.510 43.413 C 196.065 42.040,196.660 40.542,196.830 40.083 C 197.382 38.604,200.435 30.930,200.743 30.250 C 200.868 29.975,201.247 29.000,201.587 28.083 C 201.927 27.167,202.258 26.342,202.324 26.250 C 202.389 26.158,202.575 25.708,202.737 25.250 C 202.899 24.792,203.175 24.099,203.349 23.710 C 203.524 23.322,203.667 22.961,203.667 22.908 C 203.667 22.856,204.611 20.436,205.765 17.531 C 206.919 14.627,208.428 10.825,209.119 9.083 C 209.809 7.342,210.514 5.602,210.687 5.217 C 210.859 4.833,211.000 4.456,211.000 4.379 C 211.000 4.303,211.260 3.623,211.578 2.870 L 212.156 1.500 127.953 1.506 C 81.641 1.510,33.888 1.468,21.833 1.414 L -0.083 1.315 0.417 1.760 M341.823 37.336 C 345.261 39.884,348.693 44.271,350.107 47.925 C 352.626 54.429,352.847 60.262,350.807 66.395 C 350.437 67.507,350.078 68.492,350.008 68.583 C 349.939 68.675,349.801 68.975,349.702 69.250 C 349.379 70.147,348.576 72.188,347.175 75.667 C 345.933 78.750,345.630 79.488,345.155 80.583 C 345.075 80.767,344.779 81.517,344.497 82.250 C 344.215 82.983,343.837 83.901,343.658 84.290 C 343.480 84.678,343.333 85.030,343.333 85.071 C 343.333 85.112,343.246 85.356,343.139 85.614 C 343.032 85.872,342.932 86.121,342.917 86.167 C 342.901 86.212,342.809 86.438,342.711 86.667 C 342.614 86.896,342.237 87.833,341.874 88.750 C 340.903 91.202,339.015 95.865,338.838 96.250 C 338.753 96.433,338.484 97.108,338.239 97.750 C 337.993 98.392,337.692 99.142,337.569 99.417 C 337.446 99.692,337.085 100.603,336.768 101.441 C 336.451 102.279,336.045 103.292,335.867 103.691 C 335.689 104.090,335.302 105.054,335.007 105.833 C 334.711 106.612,334.356 107.513,334.218 107.833 C 334.079 108.154,333.901 108.567,333.822 108.750 C 333.744 108.933,333.405 109.796,333.070 110.667 C 332.736 111.537,332.361 112.475,332.238 112.750 C 332.115 113.025,331.910 113.550,331.782 113.917 C 331.573 114.512,329.031 120.916,328.672 121.750 C 328.593 121.933,328.137 123.058,327.659 124.250 C 327.181 125.442,326.654 126.735,326.488 127.125 L 326.185 127.833 300.968 127.831 L 275.750 127.829 275.167 127.347 C 274.846 127.082,273.758 126.213,272.750 125.416 C 271.742 124.619,270.765 123.844,270.580 123.692 C 270.395 123.541,269.945 123.194,269.580 122.922 C 269.215 122.649,268.842 122.367,268.750 122.294 C 268.658 122.221,268.058 121.773,267.417 121.300 C 266.775 120.826,266.212 120.396,266.167 120.344 C 266.121 120.292,265.708 119.989,265.250 119.669 C 264.792 119.350,264.304 118.998,264.167 118.886 C 263.928 118.692,261.329 116.775,259.286 115.286 C 258.755 114.900,257.921 114.283,257.432 113.917 C 256.942 113.550,256.371 113.138,256.163 113.000 C 255.954 112.862,254.885 112.075,253.786 111.250 C 252.687 110.425,251.629 109.639,251.436 109.504 C 249.868 108.412,244.726 104.380,243.787 103.507 C 243.071 102.842,243.069 102.581,243.766 101.083 C 243.979 100.625,244.503 99.425,244.930 98.417 C 245.659 96.691,246.899 93.865,247.414 92.750 C 247.541 92.475,247.885 91.688,248.179 91.000 C 248.472 90.313,248.927 89.279,249.189 88.704 C 249.452 88.129,249.667 87.623,249.667 87.580 C 249.667 87.537,249.929 86.933,250.250 86.239 C 250.571 85.544,250.833 84.924,250.833 84.860 C 250.833 84.797,250.994 84.446,251.189 84.081 C 251.385 83.716,251.530 83.417,251.511 83.417 C 251.468 83.417,251.594 83.091,252.635 80.500 C 253.683 77.893,254.157 76.729,254.443 76.058 C 254.566 75.769,254.667 75.487,254.667 75.431 C 254.667 75.375,254.812 75.012,254.989 74.623 C 255.167 74.235,255.850 72.567,256.508 70.917 C 257.165 69.267,257.804 67.692,257.928 67.417 C 258.051 67.142,258.444 66.167,258.802 65.250 C 259.546 63.343,266.597 45.755,266.821 45.250 C 266.902 45.067,267.284 44.129,267.669 43.167 C 268.055 42.204,268.475 41.180,268.602 40.891 C 268.729 40.603,268.833 40.312,268.833 40.246 C 268.833 40.179,269.013 39.703,269.234 39.188 C 269.454 38.672,269.800 37.819,270.003 37.292 L 270.372 36.333 305.422 36.333 L 340.471 36.333 341.823 37.336  M -25 0 L -5 0 L -5 20 L -25 20 Z M 405 0 L 425 0 L 425 20 L 405 20 Z" stroke="none" fill="#fcfcfc" fill-rule="evenodd" transform="translate(30,0)"></path><path id="path1" d=" M -25 0 L -5 0 L -5 20 L -25 20 Z M 405 0 L 425 0 L 425 20 L 405 20 Z" stroke="none" fill="#100fcfc" fill-rule="evenodd" transform="translate(490,0)"></path><path id="path2" d=" M -25 0 L -5 0 L -5 20 L -25 20 Z M 405 0 L 425 0 L 425 20 L 405 20 Z" stroke="none" fill="#100fcfc" fill-rule="evenodd" transform="translate(950,0)"></path><path id="path3" d=" M -25 0 L -5 0 L -5 20 L -25 20 Z M 405 0 L 425 0 L 425 20 L 405 20 Z" stroke="none" fill="#100fcfc" fill-rule="evenodd" transform="translate(30,223)"></path><path id="path4" d=" M -25 0 L -5 0 L -5 20 L -25 20 Z M 405 0 L 425 0 L 425 20 L 405 20 Z" stroke="none" fill="#100fcfc" fill-rule="evenodd" transform="translate(490,223)"></path></g></svg>