<?xml version="1.0" encoding="utf-8"?>
<!-- Generator: Adobe Illustrator 24.3.0, SVG Export Plug-In . SVG Version: 6.00 Build 0)  -->
<svg version="1.1" id="Logo" xmlns="http://www.w3.org/2000/svg" xmlns:xlink="http://www.w3.org/1999/xlink" x="0px" y="0px"
	 viewBox="0 0 1149.6 923.3" style="enable-background:new 0 0 1149.6 923.3;" xml:space="preserve">
<style type="text/css">
	.st0{fill:url(#SVGID_1_);}
	.st1{fill:url(#SVGID_2_);}
	.st2{fill:url(#SVGID_3_);}
	.st3{fill:url(#SVGID_4_);}
	.st4{opacity:0.5;fill:url(#SVGID_5_);}
	.st5{opacity:0.8;}
</style>
<g>
	<g>
		
			<radialGradient id="SVGID_1_" cx="218.4204" cy="602.2848" r="154.6325" gradientTransform="matrix(-nan(ind) -nan(ind) -nan(ind) -nan(ind) -nan(ind) -nan(ind))" gradientUnits="userSpaceOnUse">
			<stop  offset="0" style="stop-color:#C65970"/>
			<stop  offset="0.3467" style="stop-color:#A54E69"/>
			<stop  offset="0.5373" style="stop-color:#874970"/>
			<stop  offset="0.8894" style="stop-color:#483F80"/>
			<stop  offset="1" style="stop-color:#2A274C"/>
		</radialGradient>
		<path class="st0" d="M319.6,582.6C296.4,451,211.3,358.7,128.8,374.9l11.2-15.4l-43.5,27.8l0,0C32.3,425.3-1.9,533.1,18.5,648.8
			c21.3,121,95,208.8,170.8,209.5l56.9,2.8l-24.4-8.1C298.5,827.2,342,709.7,319.6,582.6z"/>
		
			<linearGradient id="SVGID_2_" gradientUnits="userSpaceOnUse" x1="122.833" y1="-132.9962" x2="543.6099" y2="1223.8121" gradientTransform="matrix(1 0 0 0.7085 0 -11.078)">
			<stop  offset="0.3906" style="stop-color:#95D8EE"/>
			<stop  offset="0.502" style="stop-color:#00B5E8"/>
			<stop  offset="0.5819" style="stop-color:#1D87C9"/>
			<stop  offset="0.6617" style="stop-color:#3560AE"/>
			<stop  offset="0.7349" style="stop-color:#47459B"/>
			<stop  offset="0.7992" style="stop-color:#513490"/>
			<stop  offset="0.8476" style="stop-color:#552E8C"/>
			<stop  offset="0.8834" style="stop-color:#532B87"/>
			<stop  offset="0.9231" style="stop-color:#4E217A"/>
			<stop  offset="0.9645" style="stop-color:#461264"/>
			<stop  offset="1" style="stop-color:#3C004B"/>
		</linearGradient>
		<path class="st1" d="M255.7,874.5c1.9,0.1,3.7,0.3,5.6,0.3l582.1,32.4L673.9,801.4L595,686.9L538.9,580l-23.8-199.8l41-190.1
			l52.9-106.9L144.9,343.6l0,0C70.5,387.9,31,506,54.5,633.8c24.4,133.1,109,232.1,198.2,240.5l0,0.1L255.7,874.5z"/>
	</g>
	
		<radialGradient id="SVGID_3_" cx="832.09" cy="1005.2916" r="1010.4644" fx="657.7572" fy="205.3644" gradientTransform="matrix(1 0 0 0.4763 0 -19.9011)" gradientUnits="userSpaceOnUse">
		<stop  offset="8.787329e-02" style="stop-color:#D8EEF2"/>
		<stop  offset="0.4262" style="stop-color:#98D9EE"/>
		<stop  offset="0.5517" style="stop-color:#9FCAE3"/>
		<stop  offset="0.7941" style="stop-color:#B1A1C7"/>
		<stop  offset="0.8175" style="stop-color:#B39DC4"/>
	</radialGradient>
	<path class="st2" d="M1106.4,408.6c42.4,231.1-46,440.9-197.5,468.7c-151.5,27.8-308.7-137-351.1-368s46-440.9,197.5-468.7
		S1064,177.5,1106.4,408.6z"/>
	<g>
		
			<radialGradient id="SVGID_4_" cx="745.0834" cy="201.3822" r="739.556" fx="561.1153" fy="210.773" gradientTransform="matrix(0.4416 0.8972 -0.6875 0.3384 554.4838 -535.2564)" gradientUnits="userSpaceOnUse">
			<stop  offset="0" style="stop-color:#FFFFFF"/>
			<stop  offset="0.2024" style="stop-color:#FCFCFD"/>
			<stop  offset="0.3353" style="stop-color:#F4F4F4"/>
			<stop  offset="0.4397" style="stop-color:#E6E7E8"/>
			<stop  offset="0.8492" style="stop-color:#C5C7C9"/>
			<stop  offset="0.9232" style="stop-color:#C3C5C7"/>
			<stop  offset="0.9506" style="stop-color:#BCBEC0"/>
			<stop  offset="0.9702" style="stop-color:#B0B2B4"/>
			<stop  offset="0.9861" style="stop-color:#9FA1A3"/>
			<stop  offset="0.9997" style="stop-color:#8A8C8E"/>
			<stop  offset="1" style="stop-color:#898B8D"/>
		</radialGradient>
		<path class="st3" d="M1126,405c45.6,248.2-55.8,474.8-226.4,506.2c-170.6,31.3-345.9-144.5-391.4-392.7S563.9,43.5,734.6,12.2
			S1080.4,156.7,1126,405z"/>
		
			<radialGradient id="SVGID_5_" cx="805.0186" cy="205.7719" r="699.7457" fx="630.9535" fy="214.6572" gradientTransform="matrix(0.4284 0.8996 -0.6516 0.3318 557.973 -580.0694)" gradientUnits="userSpaceOnUse">
			<stop  offset="0" style="stop-color:#BBBDBF"/>
			<stop  offset="0.2488" style="stop-color:#ACAEB0"/>
			<stop  offset="0.7241" style="stop-color:#868789"/>
			<stop  offset="1" style="stop-color:#6D6E70"/>
		</radialGradient>
		<path class="st4" d="M1113.6,407.9c43.1,234.9-46.3,448.1-199.8,476.2C760.4,912.3,601,744.8,557.9,509.9
			C514.8,275,604.2,61.8,757.7,33.7S1070.4,173,1113.6,407.9z"/>
		
			<ellipse transform="matrix(0.9836 -0.1805 0.1805 0.9836 -69.1785 157.7683)" class="st5" cx="832.1" cy="458.9" rx="278.9" ry="425.4"/>
	</g>
</g>
</svg>
